<svg xmlns="http://www.w3.org/2000/svg" xmlns:xlink="http://www.w3.org/1999/xlink" width="34.286" height="20" viewBox="0 0 34.286 20">
  <defs>
    <clipPath id="clip-path">
      <rect id="Rectangle_2642" data-name="Rectangle 2642" width="34.286" height="20" transform="translate(109.87 88.146)" fill="none"/>
    </clipPath>
  </defs>
  <g id="CANADA" transform="translate(-109.87 -88.146)">
    <g id="Group_2646" data-name="Group 2646">
      <g id="Group_2645" data-name="Group 2645">
        <g id="Group_2644" data-name="Group 2644" clip-path="url(#clip-path)">
          <rect id="Rectangle_2638" data-name="Rectangle 2638" width="8.066" height="20" transform="translate(109.87 88.146)" fill="#ea0020"/>
          <rect id="Rectangle_2639" data-name="Rectangle 2639" width="8.066" height="20" transform="translate(136.09 88.146)" fill="#ea0020"/>
          <rect id="Rectangle_2640" data-name="Rectangle 2640" width="18.154" height="20" transform="translate(117.935 88.146)" fill="#fff"/>
          <g id="Group_2643" data-name="Group 2643">
            <g id="Group_2642" data-name="Group 2642" clip-path="url(#clip-path)">
              <path id="Path_9877" data-name="Path 9877" d="M127.013,90.738l-1.191,2.311c-.134.251-.376.225-.618.087l-.862-.466.642,3.551c.136.65-.3.65-.511.369l-1.5-1.752-.244.888a.29.29,0,0,1-.337.211l-1.9-.418.5,1.89c.109.422.19.6-.108.708l-.677.331,3.272,2.768a.453.453,0,0,1,.147.463l-.286.98c1.126-.135,2.137-.259,3.261-.394.1,0,.267.089.266.208l-.15,3.586h.549l-.088-3.578c0-.116.152-.216.25-.216,1.127.135,2.136.259,3.263.394l-.288-.98a.464.464,0,0,1,.149-.463l3.271-2.768-.677-.331c-.3-.111-.215-.286-.108-.708l.5-1.89-1.9.418a.291.291,0,0,1-.337-.211l-.243-.888-1.5,1.752c-.214.281-.647.281-.511-.369l.64-3.551-.859.466c-.243.138-.486.164-.618-.087Z" fill="#ea0020"/>
            </g>
          </g>
        </g>
      </g>
    </g>
  </g>
</svg>
