<svg xmlns="http://www.w3.org/2000/svg" width="34.287" height="20" viewBox="0 0 34.287 20">
  <g id="ISRAEL" transform="translate(-109.229 -412.646)">
    <rect id="Rectangle_2678" data-name="Rectangle 2678" width="34.274" height="20" transform="translate(109.229 412.646)" fill="#003bb9"/>
    <rect id="Rectangle_2679" data-name="Rectangle 2679" width="34.286" height="12.444" transform="translate(109.229 416.499)" fill="#fff"/>
    <g id="Group_2769" data-name="Group 2769">
      <path id="Path_10233" data-name="Path 10233" d="M126.364,417.468l-1.5,2.633h-3.062l1.531,2.633-1.531,2.685h3.045l1.531,2.615,1.514-2.615h3.045l-1.5-2.668,1.479-2.615H127.9Z" fill="#003db8"/>
      <path id="Path_10234" data-name="Path 10234" d="M126.39,419.134l-.548.977h1.1l-.548-.977-.548.977h1.1Z" fill="#fff"/>
      <path id="Path_10235" data-name="Path 10235" d="M129.528,420.946l-1.119.007.544.955.575-.962-1.119.007.544.955Z" fill="#fff"/>
      <path id="Path_10236" data-name="Path 10236" d="M123.251,420.959l1.119.007-.544.955-.575-.962,1.119.007-.544.955Z" fill="#fff"/>
      <path id="Path_10237" data-name="Path 10237" d="M126.39,426.378l-.548-.977h1.1l-.548.977-.548-.977h1.1Z" fill="#fff"/>
      <path id="Path_10238" data-name="Path 10238" d="M129.528,424.565l-1.119-.007.544-.955.575.962-1.119-.007.544-.955Z" fill="#fff"/>
      <path id="Path_10239" data-name="Path 10239" d="M123.251,424.553l1.119-.007-.544-.955-.575.962,1.119-.007-.544-.955Z" fill="#fff"/>
      <path id="Path_10240" data-name="Path 10240" d="M125.336,420.969h2.094l1.02,1.811-1.02,1.776h-2.076L124.3,422.8Z" fill="#fff"/>
    </g>
  </g>
</svg>
