<svg xmlns="http://www.w3.org/2000/svg" xmlns:xlink="http://www.w3.org/1999/xlink" width="34.287" height="20" viewBox="0 0 34.287 20">
  <defs>
    <clipPath id="clip-path">
      <rect id="Rectangle_2711" data-name="Rectangle 2711" width="34.287" height="20" transform="translate(107.537 702.653)" fill="none"/>
    </clipPath>
  </defs>
  <g id="PORTUGAL" transform="translate(-107.537 -702.653)">
    <g id="Group_2895" data-name="Group 2895">
      <g id="Group_2894" data-name="Group 2894">
        <g id="Group_2893" data-name="Group 2893" clip-path="url(#clip-path)">
          <rect id="Rectangle_2707" data-name="Rectangle 2707" width="22.294" height="20" transform="translate(119.53 702.653)" fill="#ea0020"/>
          <rect id="Rectangle_2708" data-name="Rectangle 2708" width="11.993" height="20" transform="translate(107.537 702.653)" fill="#2a680b"/>
          <g id="Group_2892" data-name="Group 2892">
            <g id="Group_2891" data-name="Group 2891" clip-path="url(#clip-path)">
              <path id="Path_10242" data-name="Path 10242" d="M123.437,715.755c-1.509-.044-8.43-4.368-8.476-5.057l.38-.636c.688,1,7.762,5.2,8.458,5.053l-.362.64Z" fill="#fcff2c"/>
              <path id="Path_10243" data-name="Path 10243" d="M115.261,709.973c-.137.366,1.808,1.568,4.142,2.988s4.35,2.3,4.5,2.177c.006-.017.072-.128.065-.128-.027.044-.1.055-.2.025a23.347,23.347,0,0,1-4.315-2.176c-2.039-1.236-3.813-2.376-4.088-2.861a.316.316,0,0,1-.03-.142h-.006l-.058.1-.01.016Zm8.212,5.8c-.025.046-.072.05-.162.039a18.2,18.2,0,0,1-4.307-2.11c-2.358-1.414-4.306-2.7-4.094-3.039l.056-.1.013,0c-.192.571,3.843,2.881,4.08,3.026,2.337,1.449,4.3,2.295,4.477,2.074l-.063.109Z" fill="#fcff2c"/>
              <g id="Group_2792" data-name="Group 2792">
                <path id="Path_10244" data-name="Path 10244" d="M123.38,715.833c-.02,0-.043,0-.071,0A18.186,18.186,0,0,1,119,713.715c-2.676-1.6-4.021-2.569-4.113-2.951a.143.143,0,0,1,.013-.107l.056-.1v.032l-.03.084a.106.106,0,0,0-.011.086c.09.373,1.431,1.334,4.1,2.933a18.038,18.038,0,0,0,4.3,2.107c.084.009.128.007.149-.03l.036-.067a.164.164,0,0,1-.074.013,15.068,15.068,0,0,1-4.37-2.11l-.161-.093c-2.609-1.537-3.931-2.512-3.936-2.9.054.255.664.938,3.949,2.875.084.049.14.08.162.095a15.13,15.13,0,0,0,4.356,2.1.149.149,0,0,0,.1-.026h0a.033.033,0,0,1-.009.03l-.029.093a.107.107,0,0,1-.105.049Zm.472-.67a18.9,18.9,0,0,1-4.456-2.189c-2.515-1.531-4.282-2.642-4.148-3.005l.068-.121,0,.008-.039.109c-.142.383,2.126,1.766,4.128,2.985a18.9,18.9,0,0,0,4.443,2.184c.028,0,.039,0,.043-.009.012-.024.025-.049.038-.07a.27.27,0,0,1-.168-.006,23.947,23.947,0,0,1-4.32-2.177c-1.86-1.127-3.8-2.352-4.093-2.867a.334.334,0,0,1-.032-.149c.029.05.041.1.058.135.292.513,2.335,1.8,4.082,2.856a23.546,23.546,0,0,0,4.312,2.173c.093.029.161.021.186-.018.03.009.03.011-.028.113-.029.043-.049.048-.078.048Z"/>
              </g>
              <path id="Path_10245" data-name="Path 10245" d="M119.536,711.115a14.207,14.207,0,0,0,4.448-.634l-.231-.376a12.615,12.615,0,0,1-4.229.616c-2.035-.017-3.47-.207-4.191-.692l-.219.4a10.977,10.977,0,0,0,4.422.685Z" fill="#fcff2c"/>
              <path id="Path_10246" data-name="Path 10246" d="M124.048,710.49a6.535,6.535,0,0,1-1.768.479,18.207,18.207,0,0,1-2.749.2A19.248,19.248,0,0,1,116.9,711a7.735,7.735,0,0,1-1.848-.489c.02-.038.033-.067.053-.1a8.235,8.235,0,0,0,1.813.479,19.388,19.388,0,0,0,2.613.167,18.355,18.355,0,0,0,2.726-.2,4.4,4.4,0,0,0,1.716-.493l.076.13Zm-.2-.381a5.407,5.407,0,0,1-1.69.454,18.173,18.173,0,0,1-2.612.184,17.227,17.227,0,0,1-2.522-.164,6.846,6.846,0,0,1-1.76-.443c.022-.033.04-.064.062-.1a5.9,5.9,0,0,0,1.711.437,19.3,19.3,0,0,0,5.1-.027,4.559,4.559,0,0,0,1.636-.463l.073.123Z" fill="#fcff2c"/>
              <g id="Group_2793" data-name="Group 2793">
                <path id="Path_10247" data-name="Path 10247" d="M119.5,711.181a19.35,19.35,0,0,1-2.6-.167,7.828,7.828,0,0,1-1.832-.482l-.007-.064.033-.066a8.943,8.943,0,0,0,1.828.472,19.214,19.214,0,0,0,2.594.167,18.7,18.7,0,0,0,2.741-.2,4.445,4.445,0,0,0,1.707-.488l.1.132a5.645,5.645,0,0,1-1.777.5,18.18,18.18,0,0,1-2.752.2Zm-4.4-.76-.035.1a9.31,9.31,0,0,0,1.839.469,19.577,19.577,0,0,0,2.6.166v.015l.033-.015a18.382,18.382,0,0,0,2.747-.2,6.69,6.69,0,0,0,1.758-.472l-.075-.115a3.9,3.9,0,0,1-1.7.5,18.486,18.486,0,0,1-2.73.2,19.373,19.373,0,0,1-2.617-.168,8.066,8.066,0,0,1-1.814-.481Zm4.427.339a17.805,17.805,0,0,1-2.506-.162,6.779,6.779,0,0,1-1.679-.414l-.082-.031.035-.091c0-.009.028-.035.035-.035a5.87,5.87,0,0,0,1.706.436,19.275,19.275,0,0,0,5.1-.029,4.631,4.631,0,0,0,1.631-.459l.094.126a4.65,4.65,0,0,1-1.7.476,17.785,17.785,0,0,1-2.615.183Zm-4.21-.707-.04.093.076.011a6.718,6.718,0,0,0,1.672.413,17.706,17.706,0,0,0,2.5.163v.014l.017-.014a18.286,18.286,0,0,0,2.61-.184,5.284,5.284,0,0,0,1.683-.452l-.077-.1a3.972,3.972,0,0,1-1.621.47,19.347,19.347,0,0,1-5.108.027,5.834,5.834,0,0,1-1.714-.437Z"/>
              </g>
              <path id="Path_10248" data-name="Path 10248" d="M114.576,712.937a13.017,13.017,0,0,0,4.946.77,14.042,14.042,0,0,0,4.962-.735l-.025-.5c-.27.425-2.753.83-4.955.814a12.1,12.1,0,0,1-4.932-.8l0,.45Z" fill="#fcff2c"/>
              <path id="Path_10249" data-name="Path 10249" d="M124.531,712.866v.119a5.467,5.467,0,0,1-1.971.556,20.2,20.2,0,0,1-3.06.211,19.359,19.359,0,0,1-2.9-.2,7.278,7.278,0,0,1-2.079-.561v-.139a7.537,7.537,0,0,0,2.1.591,19.445,19.445,0,0,0,2.889.2,20.44,20.44,0,0,0,3.044-.208,6.334,6.334,0,0,0,1.987-.567Zm0-.427v.121a5.416,5.416,0,0,1-1.971.556,20.18,20.18,0,0,1-3.06.212,19.068,19.068,0,0,1-2.9-.2,7.217,7.217,0,0,1-2.079-.561l0-.139a7.44,7.44,0,0,0,2.093.591,19.183,19.183,0,0,0,2.889.2,20.178,20.178,0,0,0,3.044-.208,6.242,6.242,0,0,0,1.987-.568Z" fill="#fcff2c"/>
              <g id="Group_2794" data-name="Group 2794">
                <path id="Path_10250" data-name="Path 10250" d="M119.5,713.765a19.14,19.14,0,0,1-2.907-.2,7.246,7.246,0,0,1-2.084-.562l-.008-.15a8.277,8.277,0,0,0,2.112.575,19.258,19.258,0,0,0,2.887.2,20.579,20.579,0,0,0,3.042-.207,6.319,6.319,0,0,0,1.98-.564l.024.131a5.218,5.218,0,0,1-1.984.569,20.171,20.171,0,0,1-3.062.211Zm-4.991-.9.022.128a7.712,7.712,0,0,0,2.065.546,19.361,19.361,0,0,0,2.9.2,20.4,20.4,0,0,0,3.058-.209,5.628,5.628,0,0,0,1.963-.552l0-.11a5.692,5.692,0,0,1-1.971.578,20.1,20.1,0,0,1-3.046.208,19.17,19.17,0,0,1-2.89-.2,7.225,7.225,0,0,1-2.1-.592Zm4.991.479a19.057,19.057,0,0,1-2.907-.2,7.248,7.248,0,0,1-2.084-.562l-.006-.151a8.21,8.21,0,0,0,2.11.576,19.328,19.328,0,0,0,2.887.2,20.362,20.362,0,0,0,3.042-.208,6.35,6.35,0,0,0,1.98-.563l.024.13a5.242,5.242,0,0,1-1.982.57,20.289,20.289,0,0,1-3.064.212Zm-4.991-.9.022.127a7.623,7.623,0,0,0,2.067.547,19.408,19.408,0,0,0,2.9.2,20.456,20.456,0,0,0,3.058-.208,5.556,5.556,0,0,0,1.963-.553l0-.111a5.587,5.587,0,0,1-1.971.581,20.152,20.152,0,0,1-3.046.209,19.358,19.358,0,0,1-2.89-.2,7.29,7.29,0,0,1-2.1-.593Z"/>
              </g>
              <path id="Path_10251" data-name="Path 10251" d="M119.519,715.67a17.206,17.206,0,0,1-4.356-.675l.282.44a11.691,11.691,0,0,0,4.093.669,10.44,10.44,0,0,0,4.044-.661l.288-.458a15.412,15.412,0,0,1-4.351.685Z" fill="#fcff2c"/>
              <path id="Path_10252" data-name="Path 10252" d="M123.691,715.34c-.043.066-.087.129-.129.192a11.456,11.456,0,0,1-1.53.391,13.608,13.608,0,0,1-2.512.23,12.084,12.084,0,0,1-4.171-.712l-.059-.1.009-.015.1.038a13.414,13.414,0,0,0,4.132.684,13.8,13.8,0,0,0,2.463-.23,7.264,7.264,0,0,0,1.661-.455l.036-.02Zm.25-.413,0,0c-.032.055-.063.11-.1.164a10.736,10.736,0,0,1-1.932.431,15.415,15.415,0,0,1-2.372.2,16.3,16.3,0,0,1-4.412-.66l-.056-.109a18.63,18.63,0,0,0,4.468.659,16.824,16.824,0,0,0,2.356-.2,12.221,12.221,0,0,0,1.924-.427l-.006-.011.124-.046Z" fill="#fcff2c"/>
              <g id="Group_2795" data-name="Group 2795">
                <path id="Path_10253" data-name="Path 10253" d="M119.52,716.167h0a11.914,11.914,0,0,1-4.177-.715l-.066-.108c0-.005.02-.035.026-.035h0l.1.04a13.208,13.208,0,0,0,4.126.681h0a13.943,13.943,0,0,0,2.458-.229,6.707,6.707,0,0,0,1.659-.454.074.074,0,0,1,.026-.008l0-.007.013.008,0,0,.013.005c-.043.065-.085.13-.129.193a11.392,11.392,0,0,1-1.537.4,13.762,13.762,0,0,1-2.516.23Zm-4.226-.831.067.1a12.268,12.268,0,0,0,4.161.708,13.713,13.713,0,0,0,2.508-.23,11.648,11.648,0,0,0,1.527-.39c.027-.045.06-.092.092-.14a7.469,7.469,0,0,1-1.652.449,14.033,14.033,0,0,1-2.426.23h0a13.453,13.453,0,0,1-4.178-.684l-.1-.039Zm4.249.4h0a16.526,16.526,0,0,1-4.415-.66l-.066-.114a19.869,19.869,0,0,0,4.481.637,15.87,15.87,0,0,0,2.139-.174l.215-.029a12.457,12.457,0,0,0,1.9-.419l.142-.066,0,.01-.111.064a10.622,10.622,0,0,1-1.921.437l-.212.03a15.788,15.788,0,0,1-2.145.175,18.653,18.653,0,0,1-4.472-.659l.073.089a16.671,16.671,0,0,0,4.4.652,14.3,14.3,0,0,0,2.09-.162l.278-.038a10.834,10.834,0,0,0,1.932-.431l.089-.154-.075.174a10.4,10.4,0,0,1-1.94.437l-.28.039a13.946,13.946,0,0,1-2.094.162Z"/>
              </g>
              <path id="Path_10254" data-name="Path 10254" d="M119.52,708.206a4.447,4.447,0,1,1-4.442,4.447,4.446,4.446,0,0,1,4.442-4.447Zm0-.44a4.887,4.887,0,1,1-4.88,4.887,4.895,4.895,0,0,1,4.88-4.887Z" fill="#fcff2c"/>
              <path id="Path_10255" data-name="Path 10255" d="M119.524,707.708a4.951,4.951,0,1,1-4.948,4.951,4.959,4.959,0,0,1,4.948-4.951Zm0,.109a4.842,4.842,0,1,1-4.839,4.842,4.86,4.86,0,0,1,4.839-4.842Z" fill="#fcff2c"/>
              <g id="Group_2796" data-name="Group 2796">
                <path id="Path_10256" data-name="Path 10256" d="M119.524,717.625a4.966,4.966,0,1,1,4.961-4.965,4.968,4.968,0,0,1-4.961,4.965Zm0-9.9a4.937,4.937,0,1,0,4.933,4.938,4.941,4.941,0,0,0-4.933-4.938Zm0,9.793a4.857,4.857,0,1,1,4.852-4.855,4.86,4.86,0,0,1-4.852,4.855Zm0-9.683a4.827,4.827,0,1,0,4.822,4.828,4.831,4.831,0,0,0-4.822-4.828Z"/>
              </g>
              <path id="Path_10257" data-name="Path 10257" d="M119.53,708.119A4.536,4.536,0,1,1,115,712.656a4.551,4.551,0,0,1,4.532-4.537Zm0,.109a4.425,4.425,0,1,1-4.424,4.428,4.443,4.443,0,0,1,4.424-4.428Z" fill="#fcff2c"/>
              <g id="Group_2797" data-name="Group 2797">
                <path id="Path_10258" data-name="Path 10258" d="M119.53,717.205a4.55,4.55,0,1,1,4.544-4.549,4.554,4.554,0,0,1-4.544,4.549Zm0-9.072a4.522,4.522,0,1,0,4.515,4.523,4.526,4.526,0,0,0-4.515-4.523Zm0,8.962a4.44,4.44,0,1,1,4.434-4.439,4.445,4.445,0,0,1-4.434,4.439Zm0-8.853a4.413,4.413,0,1,0,4.407,4.414,4.419,4.419,0,0,0-4.407-4.414Z"/>
              </g>
              <rect id="Rectangle_2709" data-name="Rectangle 2709" width="0.432" height="9.962" transform="translate(119.323 707.684)" fill="#fcff2c"/>
              <g id="Group_2798" data-name="Group 2798">
                <path id="Path_10259" data-name="Path 10259" d="M119.379,707.689h0Z" fill="none"/>
              </g>
              <g id="Group_2799" data-name="Group 2799">
                <path id="Path_10260" data-name="Path 10260" d="M119.379,717.637h0Z" fill="none"/>
              </g>
              <path id="Path_10261" data-name="Path 10261" d="M119.686,707.63h.107V717.7h-.107V707.63Zm-.424,0h.11l0,10.065h-.112V707.63Z" fill="#fcff2c"/>
              <g id="Group_2800" data-name="Group 2800">
                <path id="Path_10262" data-name="Path 10262" d="M119.793,717.709h-.107l-.015-10.079.122-.013.015,10.078-.006.009-.009.005Zm-.015-10.079-.092.015.014,10.05.078-.013V707.63Zm-.4,10.079h-.112l-.012-10.079.122-.013.017,10.078-.006.009-.009.005Zm-.016-10.079-.1.015.015,10.05.081-.013V707.63Z"/>
              </g>
              <path id="Path_10263" data-name="Path 10263" d="M114.559,712.448c.622-.572,2.91-.943,4.941-.933s4.435.427,4.959.922l0,.425c-.439-.411-2.305-.9-4.959-.91s-4.58.5-4.945.921v-.425Z" fill="#fcff2c"/>
              <g id="Group_2801" data-name="Group 2801">
                <path id="Path_10264" data-name="Path 10264" d="M114.572,712.835l-.028-.367a.014.014,0,0,1,.028,0v.367Z"/>
              </g>
              <g id="Group_2802" data-name="Group 2802">
                <path id="Path_10265" data-name="Path 10265" d="M124.489,712.852l-.03-.369c0-.015.03-.015.03,0v.369Z"/>
              </g>
              <path id="Path_10266" data-name="Path 10266" d="M119.526,711.892a17.372,17.372,0,0,1,3.2.286,3.712,3.712,0,0,1,1.8.68v.129a3.96,3.96,0,0,0-1.825-.7,16.91,16.91,0,0,0-3.18-.284,17.829,17.829,0,0,0-3.247.288c-.705.142-1.645.421-1.765.7v-.134c.065-.189.765-.475,1.748-.67a17.657,17.657,0,0,1,3.264-.291Zm0-.424a17.171,17.171,0,0,1,3.2.287,3.748,3.748,0,0,1,1.8.677v.129a3.952,3.952,0,0,0-1.823-.7,16.958,16.958,0,0,0-3.18-.283,17.864,17.864,0,0,0-3.244.288c-.678.13-1.659.42-1.77.693v-.133a3.28,3.28,0,0,1,1.751-.67,17.719,17.719,0,0,1,3.263-.29Z" fill="#fcff2c"/>
              <g id="Group_2803" data-name="Group 2803">
                <path id="Path_10267" data-name="Path 10267" d="M114.514,713v0a.014.014,0,0,1-.012-.013v-.134c.069-.21.81-.5,1.761-.685a17.7,17.7,0,0,1,3.264-.291,17.34,17.34,0,0,1,3.2.287,3.693,3.693,0,0,1,1.812.683l0,.14a4.426,4.426,0,0,0-1.844-.685,16.9,16.9,0,0,0-3.138-.283,18.053,18.053,0,0,0-3.281.288c-.769.154-1.647.433-1.754.686a.015.015,0,0,1-.015.009Zm5.012-1.012a17.13,17.13,0,0,1,3.183.283,4.078,4.078,0,0,1,1.833.7l-.025-.119a3.746,3.746,0,0,0-1.793-.666,17.2,17.2,0,0,0-3.173-.286,17.828,17.828,0,0,0-3.285.291c-1.054.21-1.681.5-1.735.661v.077a4.088,4.088,0,0,1,1.746-.657,17.909,17.909,0,0,1,3.249-.288Zm-5.01.586h0a.014.014,0,0,1-.013-.014v-.134c.071-.212.83-.5,1.761-.686a17.83,17.83,0,0,1,3.266-.289,17.252,17.252,0,0,1,3.2.286,3.677,3.677,0,0,1,1.813.685l0,.137a4.44,4.44,0,0,0-1.842-.685,17.214,17.214,0,0,0-3.151-.283,17.949,17.949,0,0,0-3.265.289c-.78.15-1.662.438-1.757.685a.018.018,0,0,1-.015.009Zm5.012-1.01a17.067,17.067,0,0,1,3.181.283,4.087,4.087,0,0,1,1.833.7l-.025-.119a3.783,3.783,0,0,0-1.793-.664,16.963,16.963,0,0,0-3.16-.287,17.963,17.963,0,0,0-3.3.289,3.263,3.263,0,0,0-1.737.662v.077a3.994,3.994,0,0,1,1.752-.655,17.772,17.772,0,0,1,3.245-.288Z"/>
              </g>
              <path id="Path_10268" data-name="Path 10268" d="M119.5,709.3a10.663,10.663,0,0,1,4.18.635l.268.464a10.75,10.75,0,0,0-4.447-.65,11.284,11.284,0,0,0-4.406.67l.32-.535a11.227,11.227,0,0,1,4.085-.584Z" fill="#fcff2c"/>
              <g id="Group_2804" data-name="Group 2804">
                <path id="Path_10269" data-name="Path 10269" d="M123.73,710.012l.181.294Z" fill="none"/>
              </g>
              <path id="Path_10270" data-name="Path 10270" d="M119.528,709.686a16.639,16.639,0,0,1,2.87.2,5.226,5.226,0,0,1,1.572.462l.078.141a5.737,5.737,0,0,0-1.666-.5,16,16,0,0,0-2.856-.2,16.538,16.538,0,0,0-2.9.2,5.142,5.142,0,0,0-1.56.486l.079-.149a5.131,5.131,0,0,1,1.462-.446,16.978,16.978,0,0,1,2.918-.2Zm0-.424a16.1,16.1,0,0,1,2.772.192,4.441,4.441,0,0,1,1.432.469l.119.184a3.819,3.819,0,0,0-1.6-.543,17.505,17.505,0,0,0-2.724-.194,16.684,16.684,0,0,0-2.787.205,4.51,4.51,0,0,0-1.381.427l.1-.154a4.979,4.979,0,0,1,1.265-.383,16.766,16.766,0,0,1,2.8-.2Z" fill="#fcff2c"/>
              <g id="Group_2805" data-name="Group 2805">
                <path id="Path_10271" data-name="Path 10271" d="M124.048,710.505l-.007,0a5.724,5.724,0,0,0-1.661-.492,15.527,15.527,0,0,0-2.761-.2h-.2a16.052,16.052,0,0,0-2.787.2,5.067,5.067,0,0,0-1.553.483l.057-.167a5.237,5.237,0,0,1,1.471-.453,16.6,16.6,0,0,1,2.922-.2h.062a16.449,16.449,0,0,1,2.812.2,5.083,5.083,0,0,1,1.577.468l.083.142a.021.021,0,0,1,0,.019l-.012,0Zm-4.458-.806h-.062a16.79,16.79,0,0,0-2.917.2,5.326,5.326,0,0,0-1.457.446l-.07.143a4.066,4.066,0,0,1,1.541-.507,16.344,16.344,0,0,1,2.793-.2h.2a15.655,15.655,0,0,1,2.767.2,6.3,6.3,0,0,1,1.623.469l-.051-.094a5.332,5.332,0,0,0-1.562-.454,16.46,16.46,0,0,0-2.806-.2Zm4.259.424c-.006,0-.007,0-.011-.005a3.838,3.838,0,0,0-1.592-.54,17.263,17.263,0,0,0-2.72-.2,16.71,16.71,0,0,0-2.783.206,4.6,4.6,0,0,0-1.378.426l.082-.175a4.931,4.931,0,0,1,1.273-.389,16.63,16.63,0,0,1,2.806-.2h.082a15.916,15.916,0,0,1,2.691.192,4.453,4.453,0,0,1,1.442.472l.12.189a.014.014,0,0,1,0,.019l-.008,0Zm-4.323-.768a17.008,17.008,0,0,1,2.726.2,4.631,4.631,0,0,1,1.531.483l-.064-.1a4.49,4.49,0,0,0-1.425-.464,15.949,15.949,0,0,0-2.686-.191h-.082a16.673,16.673,0,0,0-2.8.2,5.024,5.024,0,0,0-1.259.38l-.1.152a3.778,3.778,0,0,1,1.368-.449,16.147,16.147,0,0,1,2.789-.207Z"/>
              </g>
              <path id="Path_10272" data-name="Path 10272" d="M121.985,714.719a12.645,12.645,0,0,0-2.459-.189c-3.068.035-4.06.631-4.181.81l-.23-.374a8.23,8.23,0,0,1,4.427-.852,15.758,15.758,0,0,1,2.655.229l-.212.376Z" fill="#fcff2c"/>
              <g id="Group_2806" data-name="Group 2806">
                <path id="Path_10273" data-name="Path 10273" d="M115.167,715.018l.151.259Z" fill="none"/>
              </g>
              <path id="Path_10274" data-name="Path 10274" d="M119.507,714.476a15.1,15.1,0,0,1,2.5.2l-.058.1a12.967,12.967,0,0,0-2.439-.187,11.768,11.768,0,0,0-3.274.382c-.317.088-.838.29-.89.457l-.057-.1c.017-.1.331-.3.921-.47a11.945,11.945,0,0,1,3.3-.39Zm.038-.429a15.132,15.132,0,0,1,2.685.235l-.059.106a14.086,14.086,0,0,0-2.618-.228,12.574,12.574,0,0,0-3.437.4c-.354.1-.966.327-.985.5l-.058-.1c.013-.16.541-.368,1.017-.508a12.639,12.639,0,0,1,3.455-.405Z" fill="#fcff2c"/>
              <g id="Group_2807" data-name="Group 2807">
                <path id="Path_10275" data-name="Path 10275" d="M115.347,715.446a.014.014,0,0,1-.011-.005l-.059-.1c.017-.118.35-.325.93-.489a11.787,11.787,0,0,1,3.3-.391,15.037,15.037,0,0,1,2.5.2l-.049.124a13.759,13.759,0,0,0-2.34-.18h-.24a11.471,11.471,0,0,0-3.142.383c-.336.094-.828.294-.878.448a.015.015,0,0,1-.012.009h0Zm4.16-.954a11.706,11.706,0,0,0-3.293.388c-.6.169-.9.372-.911.458l.042.066c.1-.187.668-.381.888-.443a11.623,11.623,0,0,1,3.148-.383h.24a12.8,12.8,0,0,1,2.33.189l.044-.1a17.152,17.152,0,0,0-2.488-.177Zm-4.376.586a.015.015,0,0,1-.013-.007l-.058-.1c.015-.219.789-.461,1.026-.53a12.479,12.479,0,0,1,3.459-.407,15.553,15.553,0,0,1,2.689.237l-.051.125a15.221,15.221,0,0,0-2.63-.221,12.307,12.307,0,0,0-3.433.4c-.458.136-.957.344-.976.491a.015.015,0,0,1-.011.013Zm4.414-1.018a12.423,12.423,0,0,0-3.451.406c-.6.175-1,.371-1.008.495l.04.069c.1-.216.891-.455.984-.481a12.335,12.335,0,0,1,3.443-.4,14.238,14.238,0,0,1,2.621.23l.045-.1a17.2,17.2,0,0,0-2.674-.216Z"/>
              </g>
              <path id="Path_10276" data-name="Path 10276" d="M118.629,714.348a.063.063,0,0,1,.016-.037.039.039,0,0,1,.034-.016.038.038,0,0,1,.021,0,.027.027,0,0,1,.013.015.051.051,0,0,1,0,.025.061.061,0,0,1-.008.026.071.071,0,0,1-.015.018.051.051,0,0,1-.025.005.052.052,0,0,1-.022,0,.041.041,0,0,1-.014-.016.047.047,0,0,1,0-.023Zm.013,0a.036.036,0,0,0,.007.026.024.024,0,0,0,.02.007.033.033,0,0,0,.025-.012.052.052,0,0,0,.01-.029.027.027,0,0,0,0-.018c0-.007-.005-.01-.008-.011a.055.055,0,0,0-.017-.005.066.066,0,0,0-.024.011.07.07,0,0,0-.011.031Zm.117.015.011,0a.022.022,0,0,0,.005.011l.011,0,.011-.005.006-.005,0-.008-.011,0-.017,0-.007-.007,0-.009,0-.008.005-.006.008,0,.009,0a.022.022,0,0,1,.015,0,.007.007,0,0,1,.006.006l0,.008-.012,0,0-.008a.016.016,0,0,0-.011,0l-.011,0,0,.006v0l.006.005.009,0,.017,0,0,.007v.009l0,.012-.009.008h-.014a.021.021,0,0,1-.019,0,.026.026,0,0,1-.007-.015Zm.112-.01.011,0a.031.031,0,0,1-.011.016.027.027,0,0,1-.02.006.022.022,0,0,1-.022-.007.042.042,0,0,1-.005-.027.035.035,0,0,1,.012-.025.028.028,0,0,1,.023-.01.037.037,0,0,1,.021.006.039.039,0,0,1,0,.027h0l-.048.005a.023.023,0,0,0,0,.016.012.012,0,0,0,.013,0l.01,0a.049.049,0,0,0,.008-.013Zm-.033-.015h.036l0-.012c0-.006-.008-.006-.014-.006a.013.013,0,0,0-.011.006.017.017,0,0,0-.008.013Zm.055.042h.009l0,.008h.011l.012,0s0-.005.006-.009l0-.014a.028.028,0,0,1-.019.009c-.009,0-.017,0-.019-.009a.035.035,0,0,1-.007-.023l.007-.018a.02.02,0,0,1,.012-.013.022.022,0,0,1,.014-.006.017.017,0,0,1,.018.009l0-.009h.009l-.007.059a.053.053,0,0,1,0,.022l-.011.01a.042.042,0,0,1-.018,0,.027.027,0,0,1-.018,0c0-.005-.008-.008-.006-.014Zm.013-.042c0,.009,0,.015,0,.019s0,.006.011.006.008,0,.014-.007a.074.074,0,0,0,.007-.018c0-.011,0-.016,0-.019a.014.014,0,0,0-.024,0,.047.047,0,0,0-.008.019Zm.057.031.009-.068h.01v.011l.008-.009.012,0,.012,0,0,.01a.024.024,0,0,1,.022-.012l.015,0a.037.037,0,0,1,0,.019l0,.045h-.011l0-.042v-.01l0,0,0,0a.05.05,0,0,0-.014,0,.045.045,0,0,0-.008.017l0,.039H119l.006-.043,0-.013h-.016l-.008.009,0,.014,0,.034Zm.153-.027h.011a.026.026,0,0,1-.013.016.027.027,0,0,1-.019.007.021.021,0,0,1-.019-.009.031.031,0,0,1-.008-.024.053.053,0,0,1,.014-.027.028.028,0,0,1,.023-.01.037.037,0,0,1,.02.007.034.034,0,0,1,.006.026l0,0h-.047a.047.047,0,0,0,0,.018.017.017,0,0,0,.013.005l.011,0a.029.029,0,0,0,.008-.01Zm-.033-.017h.037c0-.006,0-.013,0-.013a.021.021,0,0,0-.013-.009s-.009.006-.013.008-.006.008-.007.014Zm.055.038.009-.067h.011v.007c0-.006.011-.008.02-.008s.009,0,.013,0l0,0,0,.009v.01l0,.041-.011,0,0-.041v-.01l0-.008h-.008s-.007,0-.013.007a.034.034,0,0,0-.007.017l0,.037Zm.1-.013v.01h-.016l-.006-.006,0-.013.006-.039h-.01l0-.006h.008l0-.018.01-.007,0,.025.011,0v.009h-.011l-.007.039v.009h.01Zm.012-.024c0-.014,0-.023.013-.026a.022.022,0,0,1,.02-.01.02.02,0,0,1,.02.01c.006,0,.008.012.006.025a.033.033,0,0,1-.007.019l-.011.012a.054.054,0,0,1-.019,0,.032.032,0,0,1-.02-.008.035.035,0,0,1,0-.026Zm.01,0a.021.021,0,0,0,0,.018.01.01,0,0,0,.011.007.023.023,0,0,0,.015-.007.057.057,0,0,0,.009-.019.047.047,0,0,0,0-.019.017.017,0,0,0-.015-.006.021.021,0,0,0-.015.006.036.036,0,0,0-.006.02Zm.14.011h.011a.053.053,0,0,1-.015.015.021.021,0,0,1-.018.006.024.024,0,0,1-.022-.009.037.037,0,0,1,0-.025c0-.013,0-.022.013-.025a.027.027,0,0,1,.023-.012.024.024,0,0,1,.02.012s0,.012,0,.025l0,0h-.047a.019.019,0,0,0,0,.017c0,.005.008.006.013.006l.011,0,.009-.01Zm-.034-.018h.036a.041.041,0,0,0,0-.016l-.013,0-.014,0a.033.033,0,0,0-.007.016Zm.054.037.014-.093h.011l-.014.093Zm.04-.079,0-.014h.011l0,.014Zm-.013.079.012-.068h.011l-.011.068Zm.028,0,.012-.068h.01l0,.012a.022.022,0,0,1,.009-.01.025.025,0,0,1,.013,0l.011,0,.006.01a.022.022,0,0,1,.021-.014.014.014,0,0,1,.013.006s0,.009,0,.019l-.008.045h-.011l.008-.044V714.3l0,0-.01,0-.011.005-.006.016-.008.039h-.009l.006-.044V714.3s0-.005-.01-.005l-.009,0s0,0-.005.009l-.006.013,0,.034Zm.119-.079,0-.014h.01l0,.014Zm-.013.079.011-.068h.01l-.01.068Zm.027,0,.011-.065h.011l0,.009a.028.028,0,0,1,.023-.011l.01,0,.005.008v.019l-.009.041h-.008l0-.041,0-.012,0,0,0,0c-.009,0-.012,0-.016.005a.026.026,0,0,0-.009.018l-.006.034Zm.11,0-.01.007-.013,0a.024.024,0,0,1-.017-.006l0-.014,0-.009.008-.007.009,0h.009l.02,0,0,0,0-.011-.011,0-.012,0a.014.014,0,0,0-.008.011l-.009,0c0-.007,0-.009.006-.013l.011-.006.013,0,.014,0,.007.005,0,.007,0,.01,0,.017a.057.057,0,0,0,0,.02v.008h-.011l0-.008Zm0-.024-.018,0-.009,0-.005,0,0,.005,0,.009.009,0,.012,0,.007-.009s0-.005,0-.011v0Zm.064.032,0-.008a.018.018,0,0,1-.019.009.019.019,0,0,1-.014-.005.022.022,0,0,1-.007-.013v-.018l.006-.019.012-.011a.019.019,0,0,1,.014,0l.012,0,0,.007.007-.033h.01l-.017.092Zm-.027-.032a.036.036,0,0,0,0,.018.015.015,0,0,0,.011.006.024.024,0,0,0,.015-.006.045.045,0,0,0,.007-.018.032.032,0,0,0,0-.022s-.006-.006-.012-.006a.022.022,0,0,0-.013.006.042.042,0,0,0-.008.019Zm.059,0a.034.034,0,0,1,.014-.026.032.032,0,0,1,.022-.008.019.019,0,0,1,.019.012s.006.012,0,.025a.061.061,0,0,1-.007.018.021.021,0,0,1-.012.01.026.026,0,0,1-.037,0,.034.034,0,0,1,0-.027Zm.01,0a.028.028,0,0,0,0,.018.015.015,0,0,0,.013.006.024.024,0,0,0,.015-.006.06.06,0,0,0,.009-.018.038.038,0,0,0,0-.022.018.018,0,0,0-.013,0c-.006,0-.009,0-.015,0a.056.056,0,0,0-.009.022Zm.09.035.013-.068h.008v.01l.006-.006.007-.006c.006,0,.009,0,.013.006l0,.01,0,0c-.008,0-.01,0-.011,0l-.006.006,0,.013,0,.035Zm.089-.02.013,0a.036.036,0,0,1-.015.015.023.023,0,0,1-.019.006.022.022,0,0,1-.019-.011c-.006-.005-.006-.014,0-.025a.064.064,0,0,1,.013-.026.037.037,0,0,1,.024-.009.025.025,0,0,1,.02.009.038.038,0,0,1,0,.028v0l-.05,0c0,.009,0,.014,0,.018a.014.014,0,0,0,.012.006l.012,0,.007-.01Zm-.031-.019h.036v-.013a.015.015,0,0,0-.013-.008.017.017,0,0,0-.013.005.034.034,0,0,0-.009.015Zm.053.019h.011s0,.009,0,.011l.01,0h.011s0,0,.006-.008l0-.006-.011-.005-.014-.006a.007.007,0,0,1-.007-.005v-.01l0-.009,0,0a.014.014,0,0,1,.01,0h.022l.008.006,0,.01-.011,0,0-.009-.009,0c-.006,0-.01,0-.012,0l0,.006v0l0,0,.008,0,.016.005.006.006v.01a.014.014,0,0,1-.006.01s0,.007-.011.01h-.013a.02.02,0,0,1-.017-.006.024.024,0,0,1-.006-.018Zm.057.049.016-.093h.011v.009l.009-.006.011,0c.006,0,.009,0,.015.005a.019.019,0,0,1,.007.014v.018a.074.074,0,0,1-.009.018.037.037,0,0,1-.013.012.024.024,0,0,1-.015,0l-.009,0-.006-.007-.006.032Zm.02-.058a.038.038,0,0,0,0,.02.02.02,0,0,0,.011.006.015.015,0,0,0,.013-.005.046.046,0,0,0,.009-.021.031.031,0,0,0,0-.019.01.01,0,0,0-.009-.006.036.036,0,0,0-.015.006.042.042,0,0,0-.009.019Zm.1.016.009,0c0,.007,0,.013-.012.015a.027.027,0,0,1-.018.005c-.011,0-.019,0-.022-.009a.039.039,0,0,1,0-.027c0-.011.007-.021.015-.024a.028.028,0,0,1,.024-.009.015.015,0,0,1,.017.011c.006,0,.006.014,0,.024v0h-.049c0,.006,0,.013,0,.016a.012.012,0,0,0,.013.007l.009,0,.01-.01Zm-.032-.02.036,0a.019.019,0,0,0,0-.014.01.01,0,0,0-.01-.006l-.015,0a.034.034,0,0,0-.007.015Zm.069-.037,0-.013h.011l0,.013Zm-.016.079.014-.068h.01l-.013.069Zm.052-.007v.01h-.017l0-.007,0-.013.007-.039h-.007l0-.01h.006l0-.017.013-.007-.006.024h.012l0,.009h-.01l-.009.04v.008l0,0Zm.052,0-.014.006-.013,0a.02.02,0,0,1-.015-.006.018.018,0,0,1,0-.015l0-.009.007,0,.009-.005h.008a.17.17,0,0,0,.021,0v-.012s-.007,0-.013-.007l-.01,0-.009.011h-.01l.006-.013.013-.006.014,0a.022.022,0,0,1,.013.006l.007,0,0,.01,0,.009,0,.016,0,.019,0,.008h-.011v-.008Zm0-.026s-.009,0-.017,0l-.008,0-.007,0,0,0,0,.011.009,0,.01,0a.013.013,0,0,0,.01-.007l0-.012v0Zm.059,0a.046.046,0,0,1,.017-.026.035.035,0,0,1,.022-.006c.008,0,.016,0,.019.01a.029.029,0,0,1,0,.023l-.007.022a.052.052,0,0,1-.015.011.023.023,0,0,1-.014,0,.028.028,0,0,1-.022-.009.04.04,0,0,1,0-.028Zm.013,0c0,.009,0,.016,0,.02a.014.014,0,0,0,.011.008.017.017,0,0,0,.014-.008.038.038,0,0,0,.011-.017.03.03,0,0,0,0-.02c0-.005-.007-.008-.012-.008a.021.021,0,0,0-.015.007.03.03,0,0,0-.009.018Zm.084.061.02-.09h.008v.01l.01-.008.011,0a.017.017,0,0,1,.013.006s.005.006.005.012a.028.028,0,0,1,0,.018.036.036,0,0,1-.007.018c0,.007-.007.011-.012.012a.029.029,0,0,1-.017,0l-.007,0-.005,0-.009.029Zm.022-.056a.023.023,0,0,0,0,.019.011.011,0,0,0,.01.009.028.028,0,0,0,.014-.006.037.037,0,0,0,.008-.02.033.033,0,0,0,0-.02.012.012,0,0,0-.01-.006.031.031,0,0,0-.015,0,.052.052,0,0,0-.008.02Zm.05.037.016-.067h.008l0,.01.009-.007.009,0s0,0,.009.006l-.005.008,0,0-.011,0,0,.005a.037.037,0,0,0,0,.014l-.009.034h-.011Zm.045-.03a.047.047,0,0,1,.015-.029.1.1,0,0,1,.022-.005.023.023,0,0,1,.02.011.038.038,0,0,1,0,.025.073.073,0,0,1-.01.02c0,.005-.008.008-.012.011l-.016,0c-.01,0-.017,0-.021-.01a.033.033,0,0,1,0-.025Zm.011,0a.025.025,0,0,0,0,.021.012.012,0,0,0,.011,0,.014.014,0,0,0,.015,0,.042.042,0,0,0,.01-.019v-.02a.018.018,0,0,0-.028,0c-.006,0-.008.01-.01.018Zm.07-.041.006-.014h.009l0,.014Zm-.034.1,0-.009h0l.008,0,0-.011.015-.07h.011l-.015.071c0,.007,0,.014-.007.016a.013.013,0,0,1-.013.005Zm.094-.041h.011a.017.017,0,0,1-.013.013.025.025,0,0,1-.02.007.028.028,0,0,1-.02-.01.04.04,0,0,1,0-.025.037.037,0,0,1,.015-.025.024.024,0,0,1,.023-.009c.009,0,.017,0,.018.009s.006.015,0,.028v0l-.047,0c0,.006,0,.012,0,.015s0,.008.01.008.009,0,.011,0a.016.016,0,0,0,.009-.009Zm-.03-.021.036,0a.018.018,0,0,0,0-.014.011.011,0,0,0-.011-.006.016.016,0,0,0-.013.005.014.014,0,0,0-.008.013Z"/>
              <path id="Path_10277" data-name="Path 10277" d="M120.812,714.379h.009a.026.026,0,0,1-.011.017.037.037,0,0,1-.02.005.021.021,0,0,1-.021-.012.033.033,0,0,1,0-.023.025.025,0,0,1,.009-.019.015.015,0,0,1,.011-.011.034.034,0,0,1,.017-.005l.016.007a.024.024,0,0,1,.006.017h-.011l0-.01a.01.01,0,0,0-.009-.005.018.018,0,0,0-.015.006.041.041,0,0,0-.009.019.033.033,0,0,0,0,.02.018.018,0,0,0,.013.006l.011-.005s.007,0,.009-.009Zm.04.017v.009h-.008l-.011,0,0-.005,0-.013.009-.037h-.008l0-.01.008,0,0-.018.013-.005-.005.023h.011l0,.01h-.011l-.009.039v.006h0l0,0Zm.013-.021a.037.037,0,0,1,.014-.027.027.027,0,0,1,.022-.006.025.025,0,0,1,.021.01.035.035,0,0,1,0,.027.051.051,0,0,1-.007.018.039.039,0,0,1-.015.01.047.047,0,0,1-.017,0,.035.035,0,0,1-.019-.012.021.021,0,0,1,0-.024Zm.011,0a.015.015,0,0,0,0,.018.017.017,0,0,0,.012.008.025.025,0,0,0,.024-.025.019.019,0,0,0,0-.018.012.012,0,0,0-.013-.008.021.021,0,0,0-.015.005.025.025,0,0,0-.008.02Zm.126.042,0-.007a.033.033,0,0,1-.021.008.029.029,0,0,1-.014-.005l-.007-.012a.027.027,0,0,1,0-.018.077.077,0,0,1,0-.018l.014-.014h.025l.007.01.006-.034h.011l-.021.091Zm-.027-.034,0,.018a.014.014,0,0,0,.01.009A.019.019,0,0,0,121,714.4c.006,0,.008-.008.01-.016a.073.073,0,0,0,0-.021.011.011,0,0,0-.011-.006.012.012,0,0,0-.013,0,.068.068,0,0,0-.011.019Zm.1.02.011,0c0,.006-.007.011-.015.015a.034.034,0,0,1-.02,0,.027.027,0,0,1-.019-.012.052.052,0,0,1,0-.026.053.053,0,0,1,.016-.023.025.025,0,0,1,.022-.008.019.019,0,0,1,.018.011.03.03,0,0,1,0,.026l0,0-.047-.007c0,.009,0,.014,0,.019s.006.007.01.007l.011,0s.007-.005.011-.01Zm-.032-.02.036,0v-.012a.018.018,0,0,0-.013-.009.018.018,0,0,0-.013,0c-.006,0-.007.008-.01.013Zm.157.021.01.006a.041.041,0,0,1-.018.021.05.05,0,0,1-.026.006.031.031,0,0,1-.021-.009.052.052,0,0,1-.01-.018.089.089,0,0,1,0-.024.043.043,0,0,1,.013-.025.031.031,0,0,1,.018-.014.03.03,0,0,1,.022-.005.025.025,0,0,1,.02.009.034.034,0,0,1,.009.023h-.012c0-.008,0-.013-.006-.015s-.007-.006-.013-.009a.047.047,0,0,0-.018.005.043.043,0,0,0-.02.031.041.041,0,0,0,0,.019.02.02,0,0,0,0,.015c.005,0,.009.006.014.006a.044.044,0,0,0,.019-.005.07.07,0,0,0,.014-.018Zm.021,0a.042.042,0,0,1,.017-.026.059.059,0,0,1,.022-.005.03.03,0,0,1,.019.011.027.027,0,0,1,0,.025.064.064,0,0,1-.008.02.02.02,0,0,1-.013.009.024.024,0,0,1-.017,0c-.009,0-.016-.005-.018-.011a.031.031,0,0,1,0-.027Zm.011,0a.033.033,0,0,0,0,.02.016.016,0,0,0,.011.009.015.015,0,0,0,.015-.006c.007,0,.009-.009.013-.018a.034.034,0,0,0,0-.019c0-.006-.005-.007-.011-.007a.04.04,0,0,0-.015,0,.036.036,0,0,0-.011.018Zm.051.042.026-.091h.011l-.024.091Zm.07.006,0-.008a.032.032,0,0,1-.024.008l-.011,0,0-.008v-.018l.011-.04h.011l-.011.036,0,.013,0,.005,0,0a.019.019,0,0,0,.011,0l.01-.007,0-.011.008-.038.012,0-.018.065-.009,0Zm.023,0,.018-.066.011,0,0,.008.011-.006a.027.027,0,0,1,.013,0l.008,0s0,0,.006.01a.02.02,0,0,1,.022-.01c.008,0,.011,0,.013.007a.036.036,0,0,1,0,.016l-.013.047-.011,0,.011-.041,0-.011,0,0,0,0a.021.021,0,0,0-.016,0,.027.027,0,0,0-.008.015l-.01.038h-.009l.011-.043c0-.006,0-.009,0-.011a.013.013,0,0,0-.009-.007l-.008,0s-.005,0-.007.007,0,.008-.006.014l-.009.034Zm.113.015h-.009l.023-.09h.013l-.011.031a.023.023,0,0,1,.02-.005l.011,0,.007.008,0,.011,0,.013a.052.052,0,0,1-.016.027.038.038,0,0,1-.022.007c-.008,0-.012-.006-.014-.013l0,.008Zm.008-.034a.061.061,0,0,0,0,.018c0,.007,0,.009.011.01s.009,0,.013,0a.036.036,0,0,0,.011-.019c0-.008,0-.015,0-.018a.01.01,0,0,0-.009-.01.018.018,0,0,0-.014.006.03.03,0,0,0-.011.017Zm.092.041-.013.006h-.013a.032.032,0,0,1-.015-.009.014.014,0,0,1,0-.014s0-.007,0-.01l.008-.005.007,0h.011l.02,0v-.013a.013.013,0,0,0-.011-.005h-.011l-.009.009-.009,0s0-.008.007-.01l.011-.007h.017l.011,0,0,.005,0,.009,0,.009,0,.016-.006.02v.01l-.011,0v-.007Zm.006-.027h-.019l-.009,0-.006,0v0s0,.008,0,.009a.012.012,0,0,0,.009.006.013.013,0,0,0,.011,0l.009-.005.006-.012v0Zm.017.039.021-.066h.009l0,.009a.028.028,0,0,1,.024-.007l.009,0,0,.006v.009l0,.01-.011.042h-.011l.012-.042,0-.01,0-.008h0a.029.029,0,0,0-.014,0,.026.026,0,0,0-.011.017l-.011.038-.012,0Zm.074-.023a.054.054,0,0,1,.016-.027.047.047,0,0,1,.022,0,.029.029,0,0,1,.02.011.034.034,0,0,1,0,.028.042.042,0,0,1-.009.019.059.059,0,0,1-.015.009.027.027,0,0,1-.016,0,.027.027,0,0,1-.018-.04Zm.011,0a.029.029,0,0,0,0,.019c0,.006.005.007.011.01a.016.016,0,0,0,.014-.005c.006-.005.007-.009.011-.019s0-.016,0-.02a.012.012,0,0,0-.011-.008.017.017,0,0,0-.014.005c-.006,0-.009.009-.011.018Z"/>
              <g id="Group_2808" data-name="Group 2808">
                <path id="Path_10278" data-name="Path 10278" d="M121.957,714.795a.014.014,0,0,1-.011,0,.022.022,0,0,1-.01-.031l.272-.48a.019.019,0,0,1,.029-.008.02.02,0,0,1,.009.03l-.269.48a.021.021,0,0,1-.02.013Z" fill="#ea0020"/>
              </g>
              <path id="Path_10279" data-name="Path 10279" d="M115.378,709.88c1.519-.021,8.537,4.292,8.559,5.086l-.435.669c-.2-.923-7.319-5.119-8.495-5.041l.371-.714Z" fill="#fcff2c"/>
              <g id="Group_2809" data-name="Group 2809">
                <path id="Path_10280" data-name="Path 10280" d="M123.547,715.6l.346-.587c.005-.007.014-.009.018-.005a.013.013,0,0,1,0,.019l-.368.573Z"/>
              </g>
              <g id="Group_2810" data-name="Group 2810">
                <path id="Path_10281" data-name="Path 10281" d="M115.035,710.562l.317-.651a.015.015,0,0,1,.021-.005.012.012,0,0,1,0,.018l-.343.638Z"/>
              </g>
              <path id="Path_10282" data-name="Path 10282" d="M114.964,710.567c.282-.19,2.355.735,4.523,2.045s4.232,2.794,4.046,3.072l-.06.1-.029.024c.006-.005.037-.043,0-.144-.092-.306-1.56-1.477-3.992-2.947-2.372-1.415-4.348-2.269-4.547-2.025l.062-.121Zm9.015,4.449c.179-.354-1.744-1.8-4.127-3.213-2.44-1.384-4.2-2.2-4.517-1.955l-.074.128c0,.007,0-.007.018-.02a.314.314,0,0,1,.2-.048,15.318,15.318,0,0,1,4.349,2.006c.971.567,4.1,2.575,4.089,3.141,0,.047,0,.057-.014.083l.078-.122Z" fill="#fcff2c"/>
              <g id="Group_2811" data-name="Group 2811">
                <path id="Path_10283" data-name="Path 10283" d="M123.453,715.813l-.014-.019,0,0s.031-.031-.007-.129c-.1-.311-1.645-1.522-3.987-2.938a15.756,15.756,0,0,0-4.4-2.064.162.162,0,0,0-.124.036l0-.006a.067.067,0,0,1,.006-.02l.03-.108a.219.219,0,0,1,.129-.032,15.721,15.721,0,0,1,4.414,2.069c1.949,1.181,3.97,2.6,4.061,3.013a.1.1,0,0,1-.01.079l-.061.1-.018.009-.011.015Zm-8.416-5.181a15.688,15.688,0,0,1,4.419,2.069c2.379,1.438,3.9,2.628,4,2.952a.271.271,0,0,1,.02.1l.045-.075a.061.061,0,0,0,.007-.056c-.088-.405-2.151-1.847-4.045-3a15.831,15.831,0,0,0-4.4-2.066.208.208,0,0,0-.108.022l-.036.074a.167.167,0,0,1,.1-.021Zm8.87,4.506-.006,0h0l0-.017,0,0-.009.014.009-.014a.141.141,0,0,0,0-.044c.01-.579-3.179-2.618-4.082-3.145a15.383,15.383,0,0,0-4.342-2,.293.293,0,0,0-.187.045h0a.223.223,0,0,1,.182-.074,15.3,15.3,0,0,1,4.365,2.008c.64.372,4.11,2.537,4.1,3.154v.01l.038-.058c.166-.323-1.646-1.727-4.122-3.193-2.621-1.485-4.214-2.173-4.5-1.957l-.06.112c-.012,0-.037.013-.037.008l.076-.137a.275.275,0,0,1,.184-.05c.684,0,2.745,1.086,4.353,2,2.153,1.275,4.331,2.84,4.133,3.231l-.072.111a.014.014,0,0,1-.013.007Z"/>
              </g>
              <path id="Path_10284" data-name="Path 10284" d="M116.56,713.205a2.995,2.995,0,0,0,2.962,2.965,2.972,2.972,0,0,0,2.971-2.963h0v-3.96l-5.933-.006v3.964Z" fill="#fff"/>
              <g id="Group_2812" data-name="Group 2812">
                <path id="Path_10285" data-name="Path 10285" d="M119.522,716.187a3.007,3.007,0,0,1-2.978-2.982v-3.964l5.949-.009.018,3.975a2.993,2.993,0,0,1-2.989,2.98Zm2.955-6.94-5.917.01.018,3.948a2.971,2.971,0,0,0,2.944,2.947,2.953,2.953,0,0,0,2.955-2.945v-3.96Z"/>
              </g>
              <path id="Path_10286" data-name="Path 10286" d="M116.674,713.21v0a2.824,2.824,0,0,0,.836,2,2.837,2.837,0,0,0,4.017,0,2.814,2.814,0,0,0,.836-2h0v-3.842h-5.688v3.837Zm4.545-2.686v2.444l0,.257h0a1.655,1.655,0,0,1-.5,1.2,1.7,1.7,0,0,1-2.892-1.205v-2.7l3.393.008Z" fill="#ea0020"/>
              <g id="Group_2813" data-name="Group 2813">
                <path id="Path_10287" data-name="Path 10287" d="M119.52,716.063a2.868,2.868,0,0,1-2.861-2.85l0-3.84,5.7-.013.013,3.855a2.858,2.858,0,0,1-2.856,2.848Zm2.83-6.69-5.675.012.011,3.825a2.832,2.832,0,0,0,5.664.005v-3.842Zm-2.831,5.559a1.733,1.733,0,0,1-1.708-1.715V710.5l3.408.007.013,2.457v.258a1.515,1.515,0,0,1-.014.213,1.663,1.663,0,0,1-.489.993,1.691,1.691,0,0,1-1.209.5Zm-1.682-4.4,0,2.687a1.682,1.682,0,0,0,2.871,1.2,1.662,1.662,0,0,0,.484-.978,1.833,1.833,0,0,0,.011-.21l0-2.7-3.37.006Z"/>
              </g>
              <path id="Path_10288" data-name="Path 10288" d="M119.161,712.773h0a.424.424,0,0,0,.109.286.365.365,0,0,0,.266.119.355.355,0,0,0,.264-.118.418.418,0,0,0,.112-.287v-.536h-.749l0,.537Z" fill="#1a0095"/>
              <path id="Path_10289" data-name="Path 10289" d="M119.748,712.367a.074.074,0,1,0,0,.148.074.074,0,0,0,0-.148Z" fill="#fff"/>
              <path id="Path_10290" data-name="Path 10290" d="M119.54,712.566a.076.076,0,0,0-.074.076.075.075,0,0,0,.149,0,.076.076,0,0,0-.075-.076Z" fill="#fff"/>
              <path id="Path_10291" data-name="Path 10291" d="M119.748,712.773a.079.079,0,0,0-.077.076.076.076,0,0,0,.077.074.074.074,0,0,0,.074-.074.077.077,0,0,0-.074-.076Z" fill="#fff"/>
              <path id="Path_10292" data-name="Path 10292" d="M119.341,712.776a.074.074,0,1,0,.075.073.073.073,0,0,0-.075-.073Z" fill="#fff"/>
              <path id="Path_10293" data-name="Path 10293" d="M119.341,712.367a.073.073,0,0,0-.075.072.075.075,0,0,0,.15,0,.073.073,0,0,0-.075-.072Z" fill="#fff"/>
              <path id="Path_10294" data-name="Path 10294" d="M119.158,714.063h0a.417.417,0,0,0,.11.286.357.357,0,0,0,.529,0,.41.41,0,0,0,.109-.285v-.537l-.748,0v.539Z" fill="#1a0095"/>
              <path id="Path_10295" data-name="Path 10295" d="M119.744,713.657a.074.074,0,0,0,0,.148.074.074,0,1,0,0-.148Z" fill="#fff"/>
              <path id="Path_10296" data-name="Path 10296" d="M119.536,713.857a.073.073,0,1,0,.073.074.073.073,0,0,0-.073-.074Z" fill="#fff"/>
              <path id="Path_10297" data-name="Path 10297" d="M119.744,714.064a.074.074,0,1,0,0,.148.074.074,0,0,0,0-.148Z" fill="#fff"/>
              <path id="Path_10298" data-name="Path 10298" d="M119.337,714.064a.075.075,0,0,0,0,.15.075.075,0,1,0,0-.15Z" fill="#fff"/>
              <path id="Path_10299" data-name="Path 10299" d="M119.337,713.656a.074.074,0,1,0,0,.149.075.075,0,1,0,0-.149Z" fill="#fff"/>
              <path id="Path_10300" data-name="Path 10300" d="M118.121,712.776h0a.423.423,0,0,0,.111.285.357.357,0,0,0,.264.118.35.35,0,0,0,.264-.117.415.415,0,0,0,.111-.284v-.538h-.748l0,.537Z" fill="#1a0095"/>
              <path id="Path_10301" data-name="Path 10301" d="M118.709,712.369a.075.075,0,0,0-.074.075.074.074,0,0,0,.074.074.076.076,0,0,0,.076-.074.078.078,0,0,0-.076-.075Z" fill="#fff"/>
              <path id="Path_10302" data-name="Path 10302" d="M118.5,712.57a.073.073,0,1,0,.075.073.074.074,0,0,0-.075-.073Z" fill="#fff"/>
              <path id="Path_10303" data-name="Path 10303" d="M118.709,712.778a.073.073,0,1,0,.074.074.074.074,0,0,0-.074-.074Z" fill="#fff"/>
              <path id="Path_10304" data-name="Path 10304" d="M118.3,712.778a.074.074,0,0,0-.074.074.074.074,0,1,0,.074-.074Z" fill="#fff"/>
              <path id="Path_10305" data-name="Path 10305" d="M118.3,712.369a.074.074,0,0,0-.072.074.074.074,0,1,0,.147,0,.075.075,0,0,0-.075-.074Z" fill="#fff"/>
              <path id="Path_10306" data-name="Path 10306" d="M120.2,712.776h0a.417.417,0,0,0,.109.285.365.365,0,0,0,.265.118.356.356,0,0,0,.265-.118.407.407,0,0,0,.111-.285v-.537H120.2l0,.537Z" fill="#1a0095"/>
              <path id="Path_10307" data-name="Path 10307" d="M120.786,712.369a.073.073,0,0,0-.076.074.075.075,0,1,0,.149,0,.072.072,0,0,0-.073-.074Z" fill="#fff"/>
              <path id="Path_10308" data-name="Path 10308" d="M120.576,712.569a.075.075,0,0,0-.075.074.074.074,0,0,0,.075.073.075.075,0,0,0,.076-.073.076.076,0,0,0-.076-.074Z" fill="#fff"/>
              <path id="Path_10309" data-name="Path 10309" d="M120.784,712.776a.074.074,0,0,0-.074.076.073.073,0,0,0,.074.073.074.074,0,0,0,.075-.073.076.076,0,0,0-.075-.076Z" fill="#fff"/>
              <path id="Path_10310" data-name="Path 10310" d="M120.38,712.778a.073.073,0,1,0,.073.074.074.074,0,0,0-.073-.074Z" fill="#fff"/>
              <path id="Path_10311" data-name="Path 10311" d="M120.379,712.369a.075.075,0,0,0-.076.074.077.077,0,0,0,.076.075.075.075,0,0,0,.074-.075.073.073,0,0,0-.074-.074Z" fill="#fff"/>
              <path id="Path_10312" data-name="Path 10312" d="M119.161,711.475h0a.42.42,0,0,0,.109.283.368.368,0,0,0,.266.118.355.355,0,0,0,.264-.118.423.423,0,0,0,.112-.283v-.539h-.751v.539Z" fill="#1a0095"/>
              <path id="Path_10313" data-name="Path 10313" d="M119.748,711.065a.077.077,0,0,0-.076.076.075.075,0,0,0,.076.072.073.073,0,0,0,.074-.072.076.076,0,0,0-.074-.076Z" fill="#fff"/>
              <path id="Path_10314" data-name="Path 10314" d="M119.54,711.267a.073.073,0,1,0,.073.073.073.073,0,0,0-.073-.073Z" fill="#fff"/>
              <path id="Path_10315" data-name="Path 10315" d="M119.746,711.475a.075.075,0,0,0-.075.072.077.077,0,0,0,.075.076.076.076,0,0,0,.076-.076.074.074,0,0,0-.076-.072Z" fill="#fff"/>
              <path id="Path_10316" data-name="Path 10316" d="M119.341,711.475a.074.074,0,1,0,.075.072.073.073,0,0,0-.075-.072Z" fill="#fff"/>
              <path id="Path_10317" data-name="Path 10317" d="M119.341,711.065a.075.075,0,0,0-.075.076.075.075,0,0,0,.15,0,.075.075,0,0,0-.075-.076Z" fill="#fff"/>
              <path id="Path_10318" data-name="Path 10318" d="M117.041,710.376a.353.353,0,0,1,.2-.343.342.342,0,0,1,.214.344Z" fill="#fcff2c"/>
              <path id="Path_10319" data-name="Path 10319" d="M116.871,710.039l-.034.317h.208c0-.262.2-.307.2-.3a.3.3,0,0,1,.207.3h.207l-.04-.32-.749,0Z" fill="#fcff2c"/>
              <g id="Group_2814" data-name="Group 2814">
                <path id="Path_10320" data-name="Path 10320" d="M117.673,710.369h-.22a.331.331,0,0,0-.207-.306.272.272,0,0,0-.188.293l-.221.011.021-.331.762-.011.053.344Zm-.448-.324-.354.006-.022.3.2-.012a.272.272,0,0,1,.18-.3Zm.04,0a.322.322,0,0,1,.2.312l.179-.011-.036-.307-.344.006Z"/>
              </g>
              <path id="Path_10321" data-name="Path 10321" d="M116.824,710.356h.845a.038.038,0,0,1,.033.041.037.037,0,0,1-.033.039h-.845a.037.037,0,0,1-.033-.039.038.038,0,0,1,.033-.041Z" fill="#fcff2c"/>
              <g id="Group_2815" data-name="Group 2815">
                <path id="Path_10322" data-name="Path 10322" d="M117.669,710.448h-.845a.052.052,0,0,1,0-.1h.845a.052.052,0,0,1,0,.1Zm-.845-.079v.052h.845a.022.022,0,0,0,.021-.024l-.866-.028Z"/>
              </g>
              <path id="Path_10323" data-name="Path 10323" d="M117.131,710.356a.22.22,0,0,1,.112-.214.222.222,0,0,1,.118.214Z" fill="#fcff2c"/>
              <g id="Group_2816" data-name="Group 2816">
                <path id="Path_10324" data-name="Path 10324" d="M117.374,710.367h-.243a.147.147,0,1,1,.243-.011v.011Zm-.134-.213a.223.223,0,0,0-.1.2l.207-.012a.208.208,0,0,0-.111-.19Z"/>
              </g>
              <path id="Path_10325" data-name="Path 10325" d="M116.841,709.907h.812a.034.034,0,0,1,.031.036.033.033,0,0,1-.031.034h-.812a.033.033,0,0,1-.032-.034.035.035,0,0,1,.032-.036Z" fill="#fcff2c"/>
              <g id="Group_2817" data-name="Group 2817">
                <path id="Path_10326" data-name="Path 10326" d="M117.653,709.988h-.812a.044.044,0,0,1-.045-.045.045.045,0,0,1,.045-.047h.812a.044.044,0,0,1,.043.047.043.043,0,0,1-.043.045Zm-.812-.068v.044h.812a.019.019,0,0,0,.018-.021l-.83-.023Z"/>
              </g>
              <path id="Path_10327" data-name="Path 10327" d="M116.858,709.977h.776a.037.037,0,0,1,0,.072h-.776a.037.037,0,0,1,0-.072Z" fill="#fcff2c"/>
              <g id="Group_2818" data-name="Group 2818">
                <path id="Path_10328" data-name="Path 10328" d="M117.634,710.062h-.776a.047.047,0,0,1-.042-.049.046.046,0,0,1,.042-.049h.776a.046.046,0,0,1,.043.049.047.047,0,0,1-.043.049Zm-.776-.074v.048h.776c.009,0,.017-.011.017-.023l-.793-.025Z"/>
              </g>
              <path id="Path_10329" data-name="Path 10329" d="M117.109,709.448h.061v.044h.045v-.044h.063v.044h.045v-.044h.062v.1a.027.027,0,0,1-.028.026h-.221a.029.029,0,0,1-.027-.027v-.1Z" fill="#fcff2c"/>
              <g id="Group_2819" data-name="Group 2819">
                <path id="Path_10330" data-name="Path 10330" d="M117.357,709.586h-.231l-.03-.038v-.1l.074-.014.012.058.033-.014-.013-.03.076-.014.013.058.032-.014-.013-.03.075-.014.013.128-.041.024Zm-.2-.138-.05.012.013.088.235.027.017-.026v-.1l-.051.012.013.032-.058.013-.013-.057-.05.012.013.032-.058.013-.011-.057Z"/>
              </g>
              <path id="Path_10331" data-name="Path 10331" d="M117.34,709.583l.015.323h-.219l.017-.325.187,0Z" fill="#fcff2c"/>
              <g id="Group_2820" data-name="Group 2820">
                <path id="Path_10332" data-name="Path 10332" d="M117.367,709.917h-.231l0-.336.2-.011.027.347Zm-.04-.334-.174.01,0,.313.19-.013-.013-.31Z"/>
              </g>
              <path id="Path_10333" data-name="Path 10333" d="M117.376,709.606h.06v.043h.044V709.6h.062v.044h.043V709.6h.06v.1a.027.027,0,0,1-.027.027H117.4a.028.028,0,0,1-.028-.027v-.1Z" fill="#fcff2c"/>
              <g id="Group_2821" data-name="Group 2821">
                <path id="Path_10334" data-name="Path 10334" d="M117.618,709.743h-.227l-.028-.038v-.1l.073-.013.013.056.031-.012-.012-.032.074-.013.012.057.031-.012-.012-.032.072-.013.013.126-.04.025Zm-.195-.137-.047.013.013.086.229.027.016-.027v-.1l-.049.013.011.031-.054.013-.013-.057-.049.013.011.031-.055.013-.013-.056Z"/>
              </g>
              <path id="Path_10335" data-name="Path 10335" d="M117.607,709.732l.007.174h-.207l.006-.174Z" fill="#fcff2c"/>
              <g id="Group_2822" data-name="Group 2822">
                <path id="Path_10336" data-name="Path 10336" d="M117.627,709.917h-.219l-.006-.188.205-.011.02.2Zm-.033-.185-.18.011.007.163.18-.013-.007-.161Z"/>
              </g>
              <path id="Path_10337" data-name="Path 10337" d="M116.845,709.606h.061v.044h.044V709.6h.062v.044h.044V709.6h.061v.1a.027.027,0,0,1-.029.027h-.215a.03.03,0,0,1-.028-.027v-.1Z" fill="#fcff2c"/>
              <g id="Group_2823" data-name="Group 2823">
                <path id="Path_10338" data-name="Path 10338" d="M117.088,709.743h-.228l-.027-.038v-.1l.073-.013.013.057.031-.012-.013-.033.075-.012.012.057.032-.012-.013-.033.074-.013.011.126-.04.025Zm-.195-.136-.048.012.011.086.232.027.017-.027v-.1l-.049.013.013.032-.057.013-.013-.057-.049.012.012.032-.056.013-.013-.056Z"/>
              </g>
              <path id="Path_10339" data-name="Path 10339" d="M117.077,709.732l.006.174h-.2l0-.174Z" fill="#fcff2c"/>
              <g id="Group_2824" data-name="Group 2824">
                <path id="Path_10340" data-name="Path 10340" d="M117.1,709.919h-.219l-.008-.19.206-.011.021.2Zm-.033-.187-.181.011.006.163.182-.01-.007-.164Z"/>
              </g>
              <path id="Path_10341" data-name="Path 10341" d="M117.225,709.686a.021.021,0,1,1,.041,0v.075h-.041v-.075Z"/>
              <path id="Path_10342" data-name="Path 10342" d="M117.491,709.795a.02.02,0,1,1,.039,0v.059h-.039v-.059Z"/>
              <path id="Path_10343" data-name="Path 10343" d="M116.958,709.795a.022.022,0,1,1,.043,0v.061h-.043v-.061Z"/>
              <path id="Path_10344" data-name="Path 10344" d="M119.392,709.448h.063v.044h.043v-.044h.064v.044h.046v-.044h.061v.1a.026.026,0,0,1-.026.026h-.222a.029.029,0,0,1-.029-.026v-.1Z" fill="#fcff2c"/>
              <g id="Group_2825" data-name="Group 2825">
                <path id="Path_10345" data-name="Path 10345" d="M119.643,709.587h-.234l-.03-.038v-.1l.076-.014.012.058.031-.013-.013-.031.077-.014.013.058.033-.013-.013-.031.074-.014.013.128-.039.025Zm-.2-.139-.049.012.013.089.238.026.014-.026v-.1l-.049.012.011.032-.057.013-.013-.057-.051.012.013.032-.056.013-.014-.057Z"/>
              </g>
              <path id="Path_10346" data-name="Path 10346" d="M119.624,709.583l.013.323h-.214l.015-.323Z" fill="#fcff2c"/>
              <g id="Group_2826" data-name="Group 2826">
                <path id="Path_10347" data-name="Path 10347" d="M119.649,709.917h-.226l0-.336.2-.009.025.345Zm-.038-.334-.173.012,0,.311.19-.013-.013-.31Z"/>
              </g>
              <path id="Path_10348" data-name="Path 10348" d="M119.661,709.606h.057v.043h.045V709.6h.061v.044h.043V709.6h.063v.1a.025.025,0,0,1-.026.027h-.217a.027.027,0,0,1-.026-.027v-.1Z" fill="#fcff2c"/>
              <g id="Group_2827" data-name="Group 2827">
                <path id="Path_10349" data-name="Path 10349" d="M119.9,709.743h-.229l-.027-.038v-.1l.071-.013.013.057.032-.012-.012-.033.073-.013.013.058.03-.012-.012-.033.075-.013.012.126-.039.025Zm-.2-.137-.046.013.01.086.232.027.016-.027v-.1l-.052.013.013.032-.056.013-.012-.058-.049.013.012.032-.057.013-.011-.057Z"/>
              </g>
              <path id="Path_10350" data-name="Path 10350" d="M119.892,709.732l.007.174h-.207l.006-.174Z" fill="#fcff2c"/>
              <g id="Group_2828" data-name="Group 2828">
                <path id="Path_10351" data-name="Path 10351" d="M119.68,709.919l.006-.19.206-.011.02.188-.232.013Zm.2-.187-.181.011.007.15h.195l-.021-.161Z"/>
              </g>
              <path id="Path_10352" data-name="Path 10352" d="M119.131,709.607h.06v.043h.043v-.044h.06v.044h.043v-.044h.064v.1a.025.025,0,0,1-.026.025h-.216a.028.028,0,0,1-.027-.027v-.1Z" fill="#fcff2c"/>
              <g id="Group_2829" data-name="Group 2829">
                <path id="Path_10353" data-name="Path 10353" d="M119.374,709.743h-.228l-.028-.038v-.1l.073-.014.01.057.033-.012-.012-.032.072-.013.013.057.03-.012-.012-.032.075-.013.013.125-.039.025Zm-.2-.136-.047.012.013.086.23.027.013-.025v-.1l-.05.013.014.031-.057.013-.013-.057-.047.013.013.031-.056.013-.013-.056Z"/>
              </g>
              <path id="Path_10354" data-name="Path 10354" d="M119.362,709.732l.005.174h-.207l.006-.174Z" fill="#fcff2c"/>
              <g id="Group_2830" data-name="Group 2830">
                <path id="Path_10355" data-name="Path 10355" d="M119.379,709.919h-.218l-.005-.187.206-.013.017.2Zm-.03-.187-.18.011.005.163.18-.01,0-.164Z"/>
              </g>
              <path id="Path_10356" data-name="Path 10356" d="M119.325,710.376a.234.234,0,1,1,.413,0l-.413,0Z" fill="#fcff2c"/>
              <path id="Path_10357" data-name="Path 10357" d="M119.156,710.039l-.035.317h.207a.278.278,0,0,1,.2-.3.3.3,0,0,1,.205.3h.206l-.036-.32-.75,0Z" fill="#fcff2c"/>
              <g id="Group_2831" data-name="Group 2831">
                <path id="Path_10358" data-name="Path 10358" d="M119.957,710.369h-.221a.327.327,0,0,0-.206-.306.278.278,0,0,0-.191.293l-.219.013.024-.331.762-.013.051.344Zm-.45-.324-.351.008-.024.3.194-.012a.278.278,0,0,1,.181-.3Zm.042,0a.322.322,0,0,1,.2.312l.18-.011-.037-.307-.344.006Z"/>
              </g>
              <path id="Path_10359" data-name="Path 10359" d="M119.106,710.356h.848c.018,0,.032.02.032.041a.035.035,0,0,1-.032.039h-.848a.035.035,0,0,1-.03-.039c0-.021.014-.041.03-.041Z" fill="#fcff2c"/>
              <g id="Group_2832" data-name="Group 2832">
                <path id="Path_10360" data-name="Path 10360" d="M119.954,710.449h-.848a.048.048,0,0,1-.043-.052.048.048,0,0,1,.043-.052h.848a.049.049,0,0,1,.045.052.049.049,0,0,1-.045.052Zm-.848-.08v.055h.848c.011,0,.02-.012.02-.027l-.868-.028Z"/>
              </g>
              <path id="Path_10361" data-name="Path 10361" d="M119.416,710.356a.22.22,0,0,1,.112-.214.226.226,0,0,1,.119.214Z" fill="#fcff2c"/>
              <g id="Group_2833" data-name="Group 2833">
                <path id="Path_10362" data-name="Path 10362" d="M119.659,710.369h-.243a.148.148,0,1,1,.243-.013v.013Zm-.135-.215a.226.226,0,0,0-.1.2l.205-.011a.209.209,0,0,0-.11-.191Z"/>
              </g>
              <path id="Path_10363" data-name="Path 10363" d="M119.127,709.907h.81a.034.034,0,0,1,.031.036.033.033,0,0,1-.031.034h-.81a.033.033,0,0,1-.033-.034.034.034,0,0,1,.033-.036Z" fill="#fcff2c"/>
              <g id="Group_2834" data-name="Group 2834">
                <path id="Path_10364" data-name="Path 10364" d="M119.937,709.99h-.812a.045.045,0,0,1-.043-.047.044.044,0,0,1,.043-.047h.812a.044.044,0,0,1,.044.047.046.046,0,0,1-.044.047Zm-.812-.07v.045h.812a.022.022,0,0,0,.019-.022l-.831-.023Z"/>
              </g>
              <path id="Path_10365" data-name="Path 10365" d="M119.144,709.977h.775a.033.033,0,0,1,.029.037.033.033,0,0,1-.029.035h-.775a.034.034,0,0,1-.032-.035.035.035,0,0,1,.032-.037Z" fill="#fcff2c"/>
              <g id="Group_2835" data-name="Group 2835">
                <path id="Path_10366" data-name="Path 10366" d="M119.919,710.062h-.775a.048.048,0,0,1-.045-.048.048.048,0,0,1,.045-.049h.775a.049.049,0,0,1,0,.1Zm-.775-.072v.046h.775c.01,0,.016-.009.016-.022l-.791-.024Z"/>
              </g>
              <path id="Path_10367" data-name="Path 10367" d="M119.511,709.686c0-.032.042-.032.042,0v.076h-.042v-.076Z"/>
              <path id="Path_10368" data-name="Path 10368" d="M119.775,709.795a.02.02,0,1,1,.04,0v.061h-.04v-.061Z"/>
              <path id="Path_10369" data-name="Path 10369" d="M119.243,709.8a.02.02,0,1,1,.04,0v.06h-.04v-.06Z"/>
              <path id="Path_10370" data-name="Path 10370" d="M121.652,709.45h.062v.043h.044v-.044h.063v.044h.043v-.044h.062v.1a.024.024,0,0,1-.026.025h-.22a.027.027,0,0,1-.028-.025v-.1Z" fill="#fcff2c"/>
              <g id="Group_2836" data-name="Group 2836">
                <path id="Path_10371" data-name="Path 10371" d="M121.9,709.588h-.232l-.029-.038v-.1l.075-.014.01.057.034-.011-.012-.033.075-.013.013.057.03-.011-.013-.033.075-.013.013.126-.039.026Zm-.2-.138-.049.011.012.089.236.025.015-.025v-.1l-.051.012.013.032-.056.014-.013-.058-.05.012.012.032-.056.014-.013-.057Z"/>
              </g>
              <path id="Path_10372" data-name="Path 10372" d="M121.883,709.583l.014.324h-.216l.013-.323Z" fill="#fcff2c"/>
              <g id="Group_2837" data-name="Group 2837">
                <path id="Path_10373" data-name="Path 10373" d="M121.91,709.92h-.228v-.336l.2-.011.027.348Zm-.04-.337-.175.014v.31l.188-.011-.013-.313Z"/>
              </g>
              <path id="Path_10374" data-name="Path 10374" d="M121.917,709.609h.062v.043h.042v-.045h.062v.045h.044v-.045h.062v.1a.025.025,0,0,1-.025.026h-.218a.027.027,0,0,1-.027-.026l0-.1Z" fill="#fcff2c"/>
              <g id="Group_2838" data-name="Group 2838">
                <path id="Path_10375" data-name="Path 10375" d="M122.164,709.746h-.23l-.028-.039v-.1l.073-.014.011.057.031-.014-.013-.031.075-.014.013.059.031-.014-.011-.031.073-.014.013.126-.038.027Zm-.2-.137-.049.011.013.087.234.026.012-.026v-.1l-.049.012.013.033-.057.011-.013-.056-.049.012.013.033-.055.011-.013-.054Z"/>
              </g>
              <path id="Path_10376" data-name="Path 10376" d="M122.151,709.733l.007.174h-.207l.005-.174Z" fill="#fcff2c"/>
              <g id="Group_2839" data-name="Group 2839">
                <path id="Path_10377" data-name="Path 10377" d="M122.169,709.92h-.219l0-.188.206-.013.018.2Zm-.031-.187-.181.013.006.161.18-.011,0-.163Z"/>
              </g>
              <path id="Path_10378" data-name="Path 10378" d="M121.388,709.609h.059v.043h.046v-.043h.059v.043h.047v-.043h.06v.1a.027.027,0,0,1-.028.028h-.215a.029.029,0,0,1-.028-.028v-.1Z" fill="#fcff2c"/>
              <g id="Group_2840" data-name="Group 2840">
                <path id="Path_10379" data-name="Path 10379" d="M121.631,709.746H121.4l-.027-.039v-.1l.071-.013.013.056.033-.013-.013-.03.072-.014.013.057.034-.013-.013-.03.073-.014.012.124-.04.027Zm-.195-.137-.048.012.013.086.23.028.015-.028v-.1l-.047.011.012.032-.059.012-.012-.055-.047.011.01.032-.056.012-.011-.055Z"/>
              </g>
              <path id="Path_10380" data-name="Path 10380" d="M121.62,709.735l.008.173h-.207l.007-.173Z" fill="#fcff2c"/>
              <g id="Group_2841" data-name="Group 2841">
                <path id="Path_10381" data-name="Path 10381" d="M121.641,709.92h-.221l-.008-.187.208-.014.021.2Zm-.033-.185-.181.011.006.162.18-.012,0-.161Z"/>
              </g>
              <path id="Path_10382" data-name="Path 10382" d="M121.582,710.377a.348.348,0,0,1,.2-.341.343.343,0,0,1,.211.344l-.415,0Z" fill="#fcff2c"/>
              <path id="Path_10383" data-name="Path 10383" d="M121.412,710.039l-.032.319h.206a.284.284,0,0,1,.2-.3.3.3,0,0,1,.2.3h.208l-.036-.319Z" fill="#fcff2c"/>
              <g id="Group_2842" data-name="Group 2842">
                <path id="Path_10384" data-name="Path 10384" d="M122.217,710.369h-.223a.323.323,0,0,0-.2-.3.272.272,0,0,0-.191.293l-.219.011.021-.33.765-.012.051.342Zm-.45-.322-.355.006-.02.3.194-.013a.275.275,0,0,1,.181-.3Zm.039,0a.318.318,0,0,1,.2.311l.181-.01-.034-.307-.347.006Z"/>
              </g>
              <path id="Path_10385" data-name="Path 10385" d="M121.366,710.358h.847a.037.037,0,0,1,.032.04.036.036,0,0,1-.032.039h-.847a.035.035,0,0,1-.032-.039.036.036,0,0,1,.032-.04Z" fill="#fcff2c"/>
              <g id="Group_2843" data-name="Group 2843">
                <path id="Path_10386" data-name="Path 10386" d="M122.213,710.45h-.847a.048.048,0,0,1-.044-.052.047.047,0,0,1,.044-.052h.847a.049.049,0,0,1,.045.052.05.05,0,0,1-.045.052Zm-.847-.08v.056h.847c.009,0,.019-.014.019-.028l-.866-.028Z"/>
              </g>
              <path id="Path_10387" data-name="Path 10387" d="M121.673,710.356a.138.138,0,1,1,.233,0Z" fill="#fcff2c"/>
              <g id="Group_2844" data-name="Group 2844">
                <path id="Path_10388" data-name="Path 10388" d="M121.917,710.369h-.244c-.011-.184.1-.235.11-.235a.216.216,0,0,1,.134.224v.011Zm-.134-.213a.232.232,0,0,0-.1.2l.205-.01a.208.208,0,0,0-.108-.19Z"/>
              </g>
              <path id="Path_10389" data-name="Path 10389" d="M121.384,709.908h.813a.034.034,0,0,1,.029.037.032.032,0,0,1-.029.034h-.813a.033.033,0,0,1-.031-.034.035.035,0,0,1,.031-.037Z" fill="#fcff2c"/>
              <g id="Group_2845" data-name="Group 2845">
                <path id="Path_10390" data-name="Path 10390" d="M122.2,709.991h-.813a.046.046,0,0,1-.044-.046.048.048,0,0,1,.044-.049h.813a.045.045,0,0,1,.04.049.043.043,0,0,1-.04.046Zm-.813-.07v.046h.813c.009,0,.017-.009.017-.022l-.83-.024Z"/>
              </g>
              <path id="Path_10391" data-name="Path 10391" d="M121.4,709.979h.779a.034.034,0,0,1,.03.035.033.033,0,0,1-.03.035H121.4a.032.032,0,0,1-.029-.035.033.033,0,0,1,.029-.035Z" fill="#fcff2c"/>
              <g id="Group_2846" data-name="Group 2846">
                <path id="Path_10392" data-name="Path 10392" d="M122.178,710.062H121.4a.045.045,0,0,1-.04-.048.043.043,0,0,1,.04-.047h.779a.043.043,0,0,1,.041.047.045.045,0,0,1-.041.048Zm-.779-.071v.045h.779c.009,0,.017-.009.017-.022l-.8-.023Z"/>
              </g>
              <path id="Path_10393" data-name="Path 10393" d="M121.767,709.686a.022.022,0,1,1,.044,0v.078h-.044v-.078Z"/>
              <path id="Path_10394" data-name="Path 10394" d="M122.032,709.8a.021.021,0,1,1,.042,0v.058h-.042V709.8Z"/>
              <path id="Path_10395" data-name="Path 10395" d="M121.5,709.8a.022.022,0,1,1,.044,0v.059H121.5V709.8Z"/>
              <path id="Path_10396" data-name="Path 10396" d="M117.113,711.764h.057v.045h.045v-.046h.065v.046h.043v-.046h.064v.1a.027.027,0,0,1-.03.025h-.221a.024.024,0,0,1-.023-.025v-.1Z" fill="#fcff2c"/>
              <g id="Group_2847" data-name="Group 2847">
                <path id="Path_10397" data-name="Path 10397" d="M117.357,711.9h-.231l-.027-.037v-.1l.071-.013.012.058.033-.012-.011-.034.076-.012.011.058.032-.012-.011-.034.075-.012.011.124-.041.025Zm-.2-.136-.046.011.01.088.234.025.017-.025v-.1l-.051.012.013.034-.056.01-.014-.056-.051.012.013.034-.058.01-.011-.055Z"/>
              </g>
              <path id="Path_10398" data-name="Path 10398" d="M117.34,711.9l.016.323h-.215l.013-.322h.187Z" fill="#fcff2c"/>
              <g id="Group_2848" data-name="Group 2848">
                <path id="Path_10399" data-name="Path 10399" d="M117.368,712.233h-.228V711.9l.2-.012.028.348Zm-.039-.336-.176.012v.312l.191-.011-.015-.313Z"/>
              </g>
              <path id="Path_10400" data-name="Path 10400" d="M117.378,711.92h.058v.045h.044v-.045h.062v.045h.043v-.045h.062v.1a.025.025,0,0,1-.027.024H117.4a.026.026,0,0,1-.027-.024v-.1Z" fill="#fcff2c"/>
              <g id="Group_2849" data-name="Group 2849">
                <path id="Path_10401" data-name="Path 10401" d="M117.62,712.058h-.226l-.029-.036v-.1l.071-.011.013.056.031-.013-.011-.032.073-.012.012.057.031-.013-.01-.032.072-.012.011.125-.038.025Zm-.195-.138-.047.012.011.09.231.024.016-.024v-.1l-.051.012.011.033-.054.012-.012-.057-.05.012.013.033-.057.012-.011-.057Z"/>
              </g>
              <path id="Path_10402" data-name="Path 10402" d="M117.609,712.046l.007.175h-.209l.006-.175Z" fill="#fcff2c"/>
              <g id="Group_2850" data-name="Group 2850">
                <path id="Path_10403" data-name="Path 10403" d="M117.627,712.232h-.219l0-.186.205-.012.018.2Zm-.031-.186-.182.012.007.163.182-.011-.007-.164Z"/>
              </g>
              <path id="Path_10404" data-name="Path 10404" d="M116.847,711.923h.059v.042h.046v-.045h.06v.045h.044v-.045h.061v.1a.025.025,0,0,1-.027.025h-.215a.028.028,0,0,1-.028-.025v-.1Z" fill="#fcff2c"/>
              <g id="Group_2851" data-name="Group 2851">
                <path id="Path_10405" data-name="Path 10405" d="M117.092,712.06h-.228l-.027-.038v-.1l.069-.014.013.056.033-.011-.013-.034.073-.011.012.056.034-.011-.013-.034.072-.011.011.125-.036.026Zm-.2-.137-.048.009.011.09.234.025.015-.025v-.1l-.049.012.011.033-.057.013L117,711.92l-.049.012.01.033-.056.013-.011-.055Z"/>
              </g>
              <path id="Path_10406" data-name="Path 10406" d="M117.079,712.047l.008.175h-.207l0-.175Z" fill="#fcff2c"/>
              <g id="Group_2852" data-name="Group 2852">
                <path id="Path_10407" data-name="Path 10407" d="M117.1,712.233h-.219l-.006-.187.206-.011.019.2Zm-.029-.186-.185.013.008.162.181-.011,0-.164Z"/>
              </g>
              <path id="Path_10408" data-name="Path 10408" d="M117.041,712.691a.347.347,0,0,1,.2-.342.342.342,0,0,1,.214.345l-.416,0Z" fill="#fcff2c"/>
              <path id="Path_10409" data-name="Path 10409" d="M116.873,712.354l-.034.319h.206a.283.283,0,0,1,.2-.306.3.3,0,0,1,.205.306h.207l-.036-.321-.751,0Z" fill="#fcff2c"/>
              <g id="Group_2853" data-name="Group 2853">
                <path id="Path_10410" data-name="Path 10410" d="M117.675,712.684h-.222a.319.319,0,0,0-.207-.306.272.272,0,0,0-.188.295l-.219.011.021-.332.764-.013.051.345Zm-.45-.325-.352.007-.024.307.2-.014a.276.276,0,0,1,.18-.3Zm.04,0a.318.318,0,0,1,.2.312l.179-.011-.034-.307-.346.006Z"/>
              </g>
              <path id="Path_10411" data-name="Path 10411" d="M116.824,712.673h.847a.036.036,0,0,1,.032.038.037.037,0,0,1-.032.04h-.847a.037.037,0,0,1-.033-.04.035.035,0,0,1,.033-.038Z" fill="#fcff2c"/>
              <g id="Group_2854" data-name="Group 2854">
                <path id="Path_10412" data-name="Path 10412" d="M117.671,712.763h-.847a.052.052,0,0,1,0-.1h.847a.052.052,0,0,1,0,.1Zm-.847-.079v.053h.847c.011,0,.02-.011.02-.026l-.867-.027Z"/>
              </g>
              <path id="Path_10413" data-name="Path 10413" d="M117.131,712.671a.223.223,0,0,1,.115-.214.229.229,0,0,1,.119.214Z" fill="#fcff2c"/>
              <g id="Group_2855" data-name="Group 2855">
                <path id="Path_10414" data-name="Path 10414" d="M117.378,712.684h-.247c-.009-.184.1-.238.115-.238a.228.228,0,0,1,.13.227l0,.011Zm-.137-.213a.224.224,0,0,0-.1.2l.209-.011a.209.209,0,0,0-.112-.189Z"/>
              </g>
              <path id="Path_10415" data-name="Path 10415" d="M116.842,712.222h.812a.033.033,0,0,1,.03.034.032.032,0,0,1-.03.036h-.812a.033.033,0,0,1-.031-.036.033.033,0,0,1,.031-.034Z" fill="#fcff2c"/>
              <g id="Group_2856" data-name="Group 2856">
                <path id="Path_10416" data-name="Path 10416" d="M117.654,712.3h-.812a.046.046,0,0,1-.044-.049.044.044,0,0,1,.044-.046h.812a.044.044,0,0,1,.042.046.046.046,0,0,1-.042.049Zm-.812-.07v.043h.812a.02.02,0,0,0,.019-.022l-.831-.021Z"/>
              </g>
              <path id="Path_10417" data-name="Path 10417" d="M116.86,712.292h.774a.034.034,0,0,1,.031.036.033.033,0,0,1-.031.035h-.774a.032.032,0,0,1-.031-.035.034.034,0,0,1,.031-.036Z" fill="#fcff2c"/>
              <g id="Group_2857" data-name="Group 2857">
                <path id="Path_10418" data-name="Path 10418" d="M117.634,712.376h-.774a.047.047,0,0,1-.044-.048.049.049,0,0,1,.044-.05h.774a.049.049,0,0,1,.044.05.047.047,0,0,1-.044.048Zm-.774-.071v.045h.774a.02.02,0,0,0,.019-.022l-.793-.023Z"/>
              </g>
              <path id="Path_10419" data-name="Path 10419" d="M117.226,712a.022.022,0,1,1,.044,0v.076h-.044V712Z"/>
              <path id="Path_10420" data-name="Path 10420" d="M117.491,712.112a.021.021,0,1,1,.042,0v.059h-.042v-.059Z"/>
              <path id="Path_10421" data-name="Path 10421" d="M116.96,712.112a.021.021,0,1,1,.041,0v.059h-.041v-.059Z"/>
              <path id="Path_10422" data-name="Path 10422" d="M121.52,714.207l.042.044-.031.031.031.029.031-.029.044.044-.029.031.031.031.03-.03.047.044-.072.071a.029.029,0,0,1-.038,0l-.158-.157a.029.029,0,0,1,0-.04l.071-.069Z" fill="#fcff2c"/>
              <g id="Group_2858" data-name="Group 2858">
                <path id="Path_10423" data-name="Path 10423" d="M121.626,714.492l-.029-.012-.164-.164,0-.047.072-.071.062.044-.031.047.031.013.015-.029.06.045-.031.048.033.014.012-.031.064.044-.1.1Zm-.117-.276-.053.069.17.2.009-.018.071-.069-.046-.026-.012.03-.049-.031.031-.048-.044-.029-.015.032-.049-.032.03-.047-.043-.026Z"/>
              </g>
              <path id="Path_10424" data-name="Path 10424" d="M121.586,714.465l-.216.238-.153-.152.239-.219Z" fill="#fcff2c"/>
              <g id="Group_2859" data-name="Group 2859">
                <path id="Path_10425" data-name="Path 10425" d="M121.37,714.722l-.161-.163.238-.235.148.132-.225.266Zm.077-.38-.222.217.142.127.21-.23-.13-.114Z"/>
              </g>
              <path id="Path_10426" data-name="Path 10426" d="M121.6,714.507l.042.043-.029.03.029.031.032-.032.045.043-.032.033.032.031.03-.031.043.044-.069.07a.028.028,0,0,1-.039,0l-.152-.153a.029.029,0,0,1,0-.038l.071-.07Z" fill="#fcff2c"/>
              <g id="Group_2860" data-name="Group 2860">
                <path id="Path_10427" data-name="Path 10427" d="M121.7,714.789l-.03-.012-.16-.162.007-.047.07-.07.06.042-.031.049.031.014.014-.032.063.044-.033.049.033.013.012-.031.062.044-.1.1Zm-.113-.274-.051.071.164.191.007-.017.072-.07-.043-.026-.012.032-.05-.032.032-.049-.045-.027-.014.032-.047-.031.031-.049-.044-.025Z"/>
              </g>
              <path id="Path_10428" data-name="Path 10428" d="M121.669,714.76l-.117.128-.145-.146.126-.12.136.138Z" fill="#fcff2c"/>
              <g id="Group_2861" data-name="Group 2861">
                <path id="Path_10429" data-name="Path 10429" d="M121.552,714.9l-.156-.153.128-.138.155.138-.127.153Zm-.028-.272-.108.119.136.118.108-.118-.136-.119Z"/>
              </g>
              <path id="Path_10430" data-name="Path 10430" d="M121.219,714.131l.043.042-.03.033.03.031.033-.031.043.042-.031.032.031.031.032-.033.042.046-.07.07a.03.03,0,0,1-.038,0l-.151-.154a.025.025,0,0,1,0-.037l.068-.072Z" fill="#fcff2c"/>
              <g id="Group_2862" data-name="Group 2862">
                <path id="Path_10431" data-name="Path 10431" d="M121.324,714.413l-.028-.011-.153-.158,0-.051.071-.071.059.043-.029.05.029.013.014-.031.062.042-.032.05.032.012.013-.031.062.044-.1.1Zm-.112-.273-.052.072.164.19.009-.015.07-.073-.043-.027-.013.034-.049-.032.031-.05-.044-.024-.014.03-.048-.031.032-.049-.043-.025Z"/>
              </g>
              <path id="Path_10432" data-name="Path 10432" d="M121.3,714.385l-.118.128-.146-.147.126-.119Z" fill="#fcff2c"/>
              <g id="Group_2863" data-name="Group 2863">
                <path id="Path_10433" data-name="Path 10433" d="M121.178,714.53l-.155-.153.128-.139.153.139-.126.153Zm-.029-.273-.11.12.139.118.107-.118-.136-.12Z"/>
              </g>
              <path id="Path_10434" data-name="Path 10434" d="M120.816,714.814a.341.341,0,0,1,.384-.1.345.345,0,0,1-.094.4l-.29-.3Z" fill="#fcff2c"/>
              <path id="Path_10435" data-name="Path 10435" d="M120.934,714.455l-.25.2.146.146a.28.28,0,0,1,.361-.072.3.3,0,0,1-.072.359l.147.148.2-.254-.531-.53Z" fill="#fcff2c"/>
              <g id="Group_2864" data-name="Group 2864">
                <path id="Path_10436" data-name="Path 10436" d="M121.268,715.257l-.158-.157a.325.325,0,0,0,.071-.362h0a.266.266,0,0,0-.12-.029.321.321,0,0,0-.222.1l-.163-.143.251-.221.547.53-.206.281Zm-.059-.518a.311.311,0,0,1,.023.094.34.34,0,0,1-.1.267l.138.121.19-.245-.247-.237Zm-.284-.275-.234.2.148.127a.312.312,0,0,1,.339-.084l-.253-.246Z"/>
              </g>
              <path id="Path_10437" data-name="Path 10437" d="M120.675,714.648l.6.6a.037.037,0,0,1,0,.05.039.039,0,0,1-.052.006l-.6-.6a.04.04,0,0,1,.057-.055Z" fill="#fcff2c"/>
              <g id="Group_2865" data-name="Group 2865">
                <path id="Path_10438" data-name="Path 10438" d="M121.238,715.323l-.029-.013-.6-.6a.051.051,0,0,1,0-.068l.038-.018.629.612a.046.046,0,0,1,0,.066l-.04.019Zm-.611-.63.611.616.022-.02-.6-.631-.047.045.009-.01Z"/>
              </g>
              <path id="Path_10439" data-name="Path 10439" d="M120.892,714.863a.138.138,0,1,1,.165.164l-.165-.164Z" fill="#fcff2c"/>
              <g id="Group_2866" data-name="Group 2866">
                <path id="Path_10440" data-name="Path 10440" d="M121.057,715.045l-.173-.173c.126-.157.241-.09.243-.09a.218.218,0,0,1-.061.254l-.009.009Zm.009-.246a.223.223,0,0,0-.163.073l.152.138a.208.208,0,0,0,.057-.21s-.018,0-.046,0Z"/>
              </g>
              <path id="Path_10441" data-name="Path 10441" d="M121,714.342l.574.573a.034.034,0,0,1,0,.048.038.038,0,0,1-.048,0l-.574-.576a.031.031,0,0,1,0-.044.036.036,0,0,1,.049,0Z" fill="#fcff2c"/>
              <g id="Group_2867" data-name="Group 2867">
                <path id="Path_10442" data-name="Path 10442" d="M121.551,714.987l-.031-.012-.574-.576a.046.046,0,0,1,0-.062l.065-.005.575.575a.051.051,0,0,1,0,.063l-.035.017Zm-.556-.636-.031.032.587.59.016-.019-.572-.6Z"/>
              </g>
              <path id="Path_10443" data-name="Path 10443" d="M120.966,714.4l.55.55a.033.033,0,0,1,0,.046.031.031,0,0,1-.045,0l-.549-.55a.032.032,0,0,1,0-.045c.014-.013.033-.017.044-.005Z" fill="#fcff2c"/>
              <g id="Group_2868" data-name="Group 2868">
                <path id="Path_10444" data-name="Path 10444" d="M121.486,715.022l-.03-.012-.548-.548a.047.047,0,0,1,0-.064l.063,0,.549.549a.047.047,0,0,1,0,.064l-.036.015Zm-.527-.61-.032.03.559.568.017-.018-.544-.58Z"/>
              </g>
              <path id="Path_10445" data-name="Path 10445" d="M121.435,714.45c.019-.024.051.006.028.03l-.053.055-.03-.031.055-.054Z"/>
              <path id="Path_10446" data-name="Path 10446" d="M121.542,714.716a.021.021,0,1,1,.029.029l-.04.043-.031-.03.042-.042Z"/>
              <path id="Path_10447" data-name="Path 10447" d="M121.165,714.339a.022.022,0,1,1,.031.031l-.042.041-.031-.029.042-.043Z"/>
              <path id="Path_10448" data-name="Path 10448" d="M121.65,711.764h.06v.045h.044v-.045h.063v.045h.044v-.045h.064v.1a.029.029,0,0,1-.028.027h-.22a.028.028,0,0,1-.027-.028v-.1Z" fill="#fcff2c"/>
              <g id="Group_2869" data-name="Group 2869">
                <path id="Path_10449" data-name="Path 10449" d="M121.9,711.9h-.233l-.027-.038v-.1l.073-.013.013.058.031-.013-.013-.032.076-.013.013.058.031-.013-.014-.032.078-.013.012.125-.04.025Zm-.2-.137-.047.013.01.086.237.028.014-.027v-.1l-.05.012.012.033-.056.011-.013-.056-.05.012.013.033-.057.011-.013-.056Z"/>
              </g>
              <path id="Path_10450" data-name="Path 10450" d="M121.879,711.9l.014.321h-.215l.013-.323Z" fill="#fcff2c"/>
              <g id="Group_2870" data-name="Group 2870">
                <path id="Path_10451" data-name="Path 10451" d="M121.906,712.233h-.227V711.9l.2-.012.029.348Zm-.04-.333-.174.009v.312l.189-.011-.015-.31Z"/>
              </g>
              <path id="Path_10452" data-name="Path 10452" d="M121.915,711.923h.061v.042h.041v-.045h.062v.045h.046v-.045h.06v.1a.025.025,0,0,1-.025.025h-.217a.028.028,0,0,1-.028-.025v-.1Z" fill="#fcff2c"/>
              <g id="Group_2871" data-name="Group 2871">
                <path id="Path_10453" data-name="Path 10453" d="M122.16,712.06h-.23l-.028-.038v-.1l.074-.014.013.056.028-.013-.011-.032.073-.012.014.057.032-.013-.015-.032.075-.012.013.126-.038.026Zm-.2-.137-.048.01.011.089.234.025.012-.025v-.1l-.047.012.011.033-.057.013-.012-.058-.05.012.013.033-.054.013-.013-.055Z"/>
              </g>
              <path id="Path_10454" data-name="Path 10454" d="M122.147,712.047l.006.175h-.207l.005-.175Z" fill="#fcff2c"/>
              <g id="Group_2872" data-name="Group 2872">
                <path id="Path_10455" data-name="Path 10455" d="M122.166,712.233h-.22l-.007-.187.208-.012.019.2Zm-.032-.186-.183.013.008.162.181-.012-.006-.163Z"/>
              </g>
              <path id="Path_10456" data-name="Path 10456" d="M121.385,711.923h.058v.042h.046v-.045h.06v.045h.046v-.045h.061v.1a.026.026,0,0,1-.028.025h-.216a.026.026,0,0,1-.027-.025v-.1Z" fill="#fcff2c"/>
              <g id="Group_2873" data-name="Group 2873">
                <path id="Path_10457" data-name="Path 10457" d="M121.628,712.06H121.4l-.027-.038v-.1l.071-.014.013.056.033-.013-.013-.032.073-.012.013.057.033-.013-.013-.032.074-.012.012.126-.04.026Zm-.195-.137-.048.01.011.089.232.025.016-.025v-.1l-.049.012.013.033-.059.013-.011-.058-.049.012.011.033-.057.013-.01-.055Z"/>
              </g>
              <path id="Path_10458" data-name="Path 10458" d="M121.616,712.047l.008.175h-.207l.006-.175Z" fill="#fcff2c"/>
              <g id="Group_2874" data-name="Group 2874">
                <path id="Path_10459" data-name="Path 10459" d="M121.4,712.235l.007-.189.206-.011.021.186-.234.014Zm.2-.188-.182.013.007.15h.195l-.02-.163Z"/>
              </g>
              <path id="Path_10460" data-name="Path 10460" d="M121.58,712.691a.234.234,0,1,1,.414,0l-.414,0Z" fill="#fcff2c"/>
              <path id="Path_10461" data-name="Path 10461" d="M121.41,712.354l-.034.319h.206a.287.287,0,0,1,.2-.306.307.307,0,0,1,.2.306h.208l-.036-.32Z" fill="#fcff2c"/>
              <g id="Group_2875" data-name="Group 2875">
                <path id="Path_10462" data-name="Path 10462" d="M122.213,712.684h-.223a.323.323,0,0,0-.2-.306.278.278,0,0,0-.191.295l-.219.011.02-.331.764-.013.053.344Zm-.448-.324-.355.007-.022.306.194-.013a.274.274,0,0,1,.183-.3Zm.041,0a.324.324,0,0,1,.2.314l.18-.012-.034-.307-.343.005Z"/>
              </g>
              <path id="Path_10463" data-name="Path 10463" d="M121.361,712.673h.847a.037.037,0,0,1,.033.04.037.037,0,0,1-.033.038h-.847a.037.037,0,0,1-.032-.038.038.038,0,0,1,.032-.04Z" fill="#fcff2c"/>
              <g id="Group_2876" data-name="Group 2876">
                <path id="Path_10464" data-name="Path 10464" d="M122.208,712.763h-.847a.049.049,0,0,1-.044-.05.049.049,0,0,1,.044-.052h.847a.049.049,0,0,1,.046.052.048.048,0,0,1-.046.05Zm-.847-.077v.051h.847a.024.024,0,0,0,.022-.024l-.869-.027Z"/>
              </g>
              <path id="Path_10465" data-name="Path 10465" d="M121.669,712.673a.217.217,0,0,1,.115-.213.223.223,0,0,1,.118.213Z" fill="#fcff2c"/>
              <g id="Group_2877" data-name="Group 2877">
                <path id="Path_10466" data-name="Path 10466" d="M121.915,712.684h-.246a.149.149,0,1,1,.246-.011v.011Zm-.137-.213a.23.23,0,0,0-.1.2l.205-.013a.2.2,0,0,0-.109-.189Z"/>
              </g>
              <path id="Path_10467" data-name="Path 10467" d="M121.38,712.223h.813a.035.035,0,0,1,0,.069h-.813a.035.035,0,0,1,0-.069Z" fill="#fcff2c"/>
              <g id="Group_2878" data-name="Group 2878">
                <path id="Path_10468" data-name="Path 10468" d="M122.193,712.3h-.813a.048.048,0,0,1-.044-.049.045.045,0,0,1,.044-.045h.813a.043.043,0,0,1,.042.045.046.046,0,0,1-.042.049Zm-.813-.069v.042h.813c.011,0,.018-.009.018-.022l-.831-.02Z"/>
              </g>
              <path id="Path_10469" data-name="Path 10469" d="M121.4,712.292h.778a.034.034,0,0,1,.03.037.033.033,0,0,1-.03.035H121.4a.033.033,0,0,1-.029-.035.034.034,0,0,1,.029-.037Z" fill="#fcff2c"/>
              <g id="Group_2879" data-name="Group 2879">
                <path id="Path_10470" data-name="Path 10470" d="M122.172,712.376H121.4a.043.043,0,0,1-.041-.047.047.047,0,0,1,.041-.051h.776a.049.049,0,0,1,.045.051.046.046,0,0,1-.045.047Zm-.776-.071v.047h.776a.022.022,0,0,0,.019-.023l-.795-.024Z"/>
              </g>
              <path id="Path_10471" data-name="Path 10471" d="M121.765,712a.022.022,0,1,1,.043,0v.079h-.043V712Z"/>
              <path id="Path_10472" data-name="Path 10472" d="M122.03,712.112a.021.021,0,1,1,.042,0v.059h-.042v-.059Z"/>
              <path id="Path_10473" data-name="Path 10473" d="M121.5,712.112a.02.02,0,1,1,.039,0v.061H121.5v-.061Z"/>
              <path id="Path_10474" data-name="Path 10474" d="M117.334,714.4l.044-.042.03.031.032-.032-.032-.031.045-.046.033.033.031-.033-.031-.032.043-.044.07.071a.026.026,0,0,1,0,.038l-.155.155a.029.029,0,0,1-.04,0l-.07-.07Z" fill="#fcff2c"/>
              <g id="Group_2880" data-name="Group 2880">
                <path id="Path_10475" data-name="Path 10475" d="M117.421,714.489l-.027-.013-.069-.069.043-.06.048.03.015-.031-.031-.014.046-.062.049.03.013-.031-.032-.014.044-.062.1.08-.011.048-.186.168Zm-.053-.124-.024.042.077.068.013-.019.156-.155-.07-.09-.025.044.03.014-.03.051-.049-.033-.03.045.033.014-.033.048-.048-.029Z"/>
              </g>
              <path id="Path_10476" data-name="Path 10476" d="M117.592,714.33l.237.22-.152.151-.219-.237Z" fill="#fcff2c"/>
              <g id="Group_2881" data-name="Group 2881">
                <path id="Path_10477" data-name="Path 10477" d="M117.678,714.719l-.227-.25.132-.148.256.218-.161.18Zm-.1-.38-.114.132.209.211.142-.142-.237-.2Z"/>
              </g>
              <path id="Path_10478" data-name="Path 10478" d="M117.634,714.321l.043-.043.03.032.032-.032-.034-.031.046-.042.031.03.031-.03-.031-.033.044-.042.071.071a.023.023,0,0,1,0,.036l-.155.153a.027.027,0,0,1-.038,0l-.069-.069Z" fill="#fcff2c"/>
              <g id="Group_2882" data-name="Group 2882">
                <path id="Path_10479" data-name="Path 10479" d="M117.722,714.411l-.026-.012-.071-.069.042-.06.05.03.012-.03-.031-.013.043-.062.051.031.012-.031-.033-.014.046-.062.09.078,0,.049-.183.165Zm-.055-.124-.024.043.079.068.013-.018.151-.151-.069-.09-.027.042.032.014-.03.049-.051-.032-.026.045.032.013-.03.048-.05-.031Z"/>
              </g>
              <path id="Path_10480" data-name="Path 10480" d="M117.888,714.246l.126.119-.144.147-.121-.127Z" fill="#fcff2c"/>
              <g id="Group_2883" data-name="Group 2883">
                <path id="Path_10481" data-name="Path 10481" d="M117.868,714.528l-.127-.138.138-.153.144.119-.155.172Zm.011-.273-.121.135.11.1.136-.136-.125-.1Z"/>
              </g>
              <path id="Path_10482" data-name="Path 10482" d="M117.259,714.7l.042-.041.033.031.031-.031-.033-.033.044-.043.031.031.033-.031-.033-.03.042-.045.073.071a.026.026,0,0,1,0,.036l-.154.155a.028.028,0,0,1-.038,0l-.071-.071Z" fill="#fcff2c"/>
              <g id="Group_2884" data-name="Group 2884">
                <path id="Path_10483" data-name="Path 10483" d="M117.349,714.786l-.028-.01-.071-.07.042-.061.052.031.012-.031-.033-.013.045-.062.048.033.015-.032-.033-.014.044-.06.088.074v.049l-.18.166Zm-.057-.124-.026.044.083.068.01-.017.154-.153-.071-.091-.026.044.031.014-.031.048-.048-.031-.026.044.03.013-.028.048-.052-.031Z"/>
              </g>
              <path id="Path_10484" data-name="Path 10484" d="M117.513,714.62l.127.119-.145.148-.119-.128Z" fill="#fcff2c"/>
              <g id="Group_2885" data-name="Group 2885">
                <path id="Path_10485" data-name="Path 10485" d="M117.5,714.9l-.13-.136.139-.156.145.119-.154.173Zm.011-.273-.123.137.112.1.135-.136-.124-.1Z"/>
              </g>
              <path id="Path_10486" data-name="Path 10486" d="M117.941,715.1a.349.349,0,0,1-.1-.386.343.343,0,0,1,.393.093l-.295.293Z" fill="#fcff2c"/>
              <path id="Path_10487" data-name="Path 10487" d="M117.583,714.984l.2.25.146-.148a.278.278,0,0,1-.071-.36.3.3,0,0,1,.359.073l.147-.149-.253-.2-.529.533Z" fill="#fcff2c"/>
              <g id="Group_2886" data-name="Group 2886">
                <path id="Path_10488" data-name="Path 10488" d="M117.782,715.25l-.209-.258.531-.55.268.2-.145.165a.4.4,0,0,0-.24-.1.284.284,0,0,0-.123.028h0a.276.276,0,0,0,.075.339l-.157.173Zm.053-.51-.245.253.194.222.137-.138a.285.285,0,0,1-.11-.258.356.356,0,0,1,.024-.079Zm.152-.056a.348.348,0,0,1,.24.1l.13-.144-.253-.184-.236.249a.3.3,0,0,1,.119-.025Z"/>
              </g>
              <path id="Path_10489" data-name="Path 10489" d="M117.775,715.243l.6-.6a.037.037,0,0,1,.051,0,.041.041,0,0,1,.005.052l-.6.6a.037.037,0,0,1-.051,0,.035.035,0,0,1,0-.05Z" fill="#fcff2c"/>
              <g id="Group_2887" data-name="Group 2887">
                <path id="Path_10490" data-name="Path 10490" d="M117.809,715.319l-.038-.017a.053.053,0,0,1-.005-.068l.6-.6c.044-.013.058-.006.069.006a.055.055,0,0,1,0,.069l-.627.609Zm.585-.671-.61.6,0,.041.03.012.011-.016.6-.6,0-.043Z"/>
              </g>
              <path id="Path_10491" data-name="Path 10491" d="M117.991,715.023a.137.137,0,1,1,.163-.162l-.163.162Z" fill="#fcff2c"/>
              <g id="Group_2888" data-name="Group 2888">
                <path id="Path_10492" data-name="Path 10492" d="M117.991,715.042l-.009-.009a.225.225,0,0,1-.071-.244c.015-.015.124-.063.252.062l-.172.191Zm-.065-.237a.228.228,0,0,0,.065.2l.155-.156a.269.269,0,0,0-.22-.046Z"/>
              </g>
              <path id="Path_10493" data-name="Path 10493" d="M117.469,714.912l.573-.573a.033.033,0,0,1,.048,0,.034.034,0,0,1,0,.047l-.573.573a.031.031,0,0,1-.046,0,.033.033,0,0,1,0-.047Z" fill="#fcff2c"/>
              <g id="Group_2889" data-name="Group 2889">
                <path id="Path_10494" data-name="Path 10494" d="M117.5,714.982l-.036-.021,0-.058.573-.573.066,0a.049.049,0,0,1,0,.065l-.6.585Zm0-.026v.013l.012-.017.572-.572.008-.039h-.026l-.586.579-.006.038.026,0Z"/>
              </g>
              <path id="Path_10495" data-name="Path 10495" d="M117.53,714.95l.548-.549a.033.033,0,0,1,.047,0,.033.033,0,0,1,0,.047l-.549.55a.031.031,0,0,1-.044,0c-.013-.014-.017-.036-.005-.046Z" fill="#fcff2c"/>
              <g id="Group_2890" data-name="Group 2890">
                <path id="Path_10496" data-name="Path 10496" d="M117.561,715.02l-.036-.016a.046.046,0,0,1,0-.063l.55-.551.062,0a.047.047,0,0,1,.006.064l-.579.562Zm0-.025v.012l.01-.015.55-.551,0-.038H118.1l-.56.555,0,.037Z"/>
              </g>
              <path id="Path_10497" data-name="Path 10497" d="M117.583,714.476a.022.022,0,1,1,.031-.03l.053.056-.029.029-.055-.055Z"/>
              <path id="Path_10498" data-name="Path 10498" d="M117.85,714.368a.021.021,0,1,1,.029-.029l.042.041-.029.029-.042-.041Z"/>
              <path id="Path_10499" data-name="Path 10499" d="M117.474,714.744a.021.021,0,1,1,.03-.029l.041.042-.028.029-.043-.042Z"/>
            </g>
          </g>
        </g>
      </g>
    </g>
  </g>
</svg>
