<svg xmlns="http://www.w3.org/2000/svg" width="22" height="22" viewBox="0 0 22 22">
    <defs>
        <style>.a,.b,.d{fill:none;}.a,.b{stroke:#fff;}.a{isolation:isolate;}.b{stroke-linecap:round;stroke-linejoin:round;}.c{stroke:none;}</style>
    </defs>
    <g transform="translate(-473 -623)">
        <g class="a" transform="translate(474 624)">
            <circle class="c" cx="10" cy="10" r="10"/>
            <circle class="d" cx="10" cy="10" r="10.5"/>
        </g>
        <g transform="translate(472.957 626.393)">
            <path class="b" d="M6,11.195a3.684,3.684,0,0,1,2.521-.63c1.891,0,3.152,1.261,5.043,1.261a3.684,3.684,0,0,0,2.521-.63V3.63a3.684,3.684,0,0,1-2.521.63C11.673,4.261,10.413,3,8.521,3A3.684,3.684,0,0,0,6,3.63Z"/>
            <path class="b" d="M6,27.846V22.5" transform="translate(0 -11.305)"/>
        </g>
    </g>
</svg>
