<svg xmlns="http://www.w3.org/2000/svg" xmlns:xlink="http://www.w3.org/1999/xlink" width="34.288" height="20" viewBox="0 0 34.288 20">
  <defs>
    <clipPath id="clip-path">
      <rect id="Rectangle_2732" data-name="Rectangle 2732" width="34.288" height="20" transform="translate(107.306 811.342)" fill="none"/>
    </clipPath>
  </defs>
  <g id="USA" transform="translate(-107.306 -811.342)">
    <g id="Group_2904" data-name="Group 2904">
      <g id="Group_2903" data-name="Group 2903">
        <g id="Group_2902" data-name="Group 2902" clip-path="url(#clip-path)">
          <rect id="Rectangle_2718" data-name="Rectangle 2718" width="34.288" height="1.538" transform="translate(107.306 829.804)" fill="#e42918"/>
          <rect id="Rectangle_2719" data-name="Rectangle 2719" width="34.288" height="1.539" transform="translate(107.306 828.265)" fill="#fff"/>
          <rect id="Rectangle_2720" data-name="Rectangle 2720" width="34.288" height="1.536" transform="translate(107.306 826.729)" fill="#e42918"/>
          <rect id="Rectangle_2721" data-name="Rectangle 2721" width="34.288" height="1.54" transform="translate(107.306 825.189)" fill="#fff"/>
          <rect id="Rectangle_2722" data-name="Rectangle 2722" width="34.288" height="1.539" transform="translate(107.306 823.65)" fill="#e42918"/>
          <rect id="Rectangle_2723" data-name="Rectangle 2723" width="34.288" height="1.538" transform="translate(107.306 822.112)" fill="#fff"/>
          <rect id="Rectangle_2724" data-name="Rectangle 2724" width="34.288" height="1.541" transform="translate(107.306 820.572)" fill="#e42918"/>
          <rect id="Rectangle_2725" data-name="Rectangle 2725" width="34.288" height="1.536" transform="translate(107.306 819.035)" fill="#fff"/>
          <rect id="Rectangle_2726" data-name="Rectangle 2726" width="34.288" height="1.538" transform="translate(107.306 817.497)" fill="#e42918"/>
          <rect id="Rectangle_2727" data-name="Rectangle 2727" width="34.288" height="1.539" transform="translate(107.306 815.959)" fill="#fff"/>
          <rect id="Rectangle_2728" data-name="Rectangle 2728" width="34.288" height="1.54" transform="translate(107.306 814.419)" fill="#e42918"/>
          <rect id="Rectangle_2729" data-name="Rectangle 2729" width="34.288" height="1.536" transform="translate(107.306 812.882)" fill="#fff"/>
          <rect id="Rectangle_2730" data-name="Rectangle 2730" width="34.288" height="1.54" transform="translate(107.306 811.342)" fill="#e42918"/>
          <rect id="Rectangle_2731" data-name="Rectangle 2731" width="15.658" height="10.77" transform="translate(107.306 811.342)" fill="#24356b"/>
          <path id="Path_10501" data-name="Path 10501" d="M108.721,812.529l.134.41h.429l-.347.251.131.407-.347-.251-.347.251.136-.407-.347-.251h.425Z" fill="#fff"/>
          <path id="Path_10502" data-name="Path 10502" d="M108.721,814.327l.134.407h.429l-.347.251.131.407-.347-.251-.347.251.136-.407-.347-.251h.425Z" fill="#fff"/>
          <path id="Path_10503" data-name="Path 10503" d="M108.721,816.126l.134.405h.429l-.347.251.131.409-.347-.253-.347.253.136-.409-.347-.251h.425Z" fill="#fff"/>
          <path id="Path_10504" data-name="Path 10504" d="M108.721,817.922l.134.407h.429l-.347.251.131.407-.347-.251-.347.251.136-.407-.347-.251h.425Z" fill="#fff"/>
          <path id="Path_10505" data-name="Path 10505" d="M108.721,819.72l.134.409h.429l-.347.25.131.407-.347-.251-.347.251.136-.407-.347-.25h.425Z" fill="#fff"/>
          <path id="Path_10506" data-name="Path 10506" d="M109.973,813.477l.128.407h.431l-.345.252.13.407-.344-.251-.345.251.13-.407-.346-.252h.43Z" fill="#fff"/>
          <path id="Path_10507" data-name="Path 10507" d="M109.973,815.274l.128.405h.431l-.345.253.13.4-.344-.247-.345.247.13-.4-.346-.253h.43Z" fill="#fff"/>
          <path id="Path_10508" data-name="Path 10508" d="M109.973,817.072l.128.407h.431l-.345.251.13.407-.344-.251-.345.251.13-.407-.346-.251h.43Z" fill="#fff"/>
          <path id="Path_10509" data-name="Path 10509" d="M109.973,818.872l.128.405h.431l-.345.251.13.405-.344-.251-.345.251.13-.405-.346-.251h.43Z" fill="#fff"/>
          <path id="Path_10510" data-name="Path 10510" d="M111.238,812.529l.134.41h.429l-.347.251.134.407-.35-.251-.343.251.132-.407-.347-.251h.427Z" fill="#fff"/>
          <path id="Path_10511" data-name="Path 10511" d="M111.238,814.327l.134.407h.429l-.347.251.134.407-.35-.251-.343.251.132-.407-.347-.251h.427Z" fill="#fff"/>
          <path id="Path_10512" data-name="Path 10512" d="M111.238,816.126l.134.405h.429l-.347.251.134.409-.35-.253-.343.253.132-.409-.347-.251h.427Z" fill="#fff"/>
          <path id="Path_10513" data-name="Path 10513" d="M111.238,817.922l.134.407h.429l-.347.251.134.407-.35-.251-.343.251.132-.407-.347-.251h.427Z" fill="#fff"/>
          <path id="Path_10514" data-name="Path 10514" d="M111.238,819.72l.134.409h.429l-.347.25.134.407-.35-.251-.343.251.132-.407-.347-.25h.427Z" fill="#fff"/>
          <path id="Path_10515" data-name="Path 10515" d="M112.492,813.477l.132.407h.431l-.349.252.134.407-.347-.251-.346.251.134-.407-.349-.252h.429Z" fill="#fff"/>
          <path id="Path_10516" data-name="Path 10516" d="M112.492,815.274l.132.405h.431l-.349.253.134.4-.347-.247-.346.247.134-.4-.349-.253h.429Z" fill="#fff"/>
          <path id="Path_10517" data-name="Path 10517" d="M112.492,817.072l.132.407h.431l-.349.251.134.407-.347-.251-.346.251.134-.407-.349-.251h.429Z" fill="#fff"/>
          <path id="Path_10518" data-name="Path 10518" d="M112.492,818.872l.132.405h.431l-.349.251.134.405-.347-.251-.346.251.134-.405-.349-.251h.429Z" fill="#fff"/>
          <path id="Path_10519" data-name="Path 10519" d="M113.761,812.529l.134.41h.424l-.347.251.138.407-.349-.251-.347.251.132-.407-.343-.251h.427Z" fill="#fff"/>
          <path id="Path_10520" data-name="Path 10520" d="M113.761,814.327l.134.407h.424l-.347.251.138.407-.349-.251-.347.251.132-.407-.343-.251h.427Z" fill="#fff"/>
          <path id="Path_10521" data-name="Path 10521" d="M113.761,816.126l.134.405h.424l-.347.251.138.409-.349-.253-.347.253.132-.409-.343-.251h.427Z" fill="#fff"/>
          <path id="Path_10522" data-name="Path 10522" d="M113.761,817.922l.134.407h.424l-.347.251.138.407-.349-.251-.347.251.132-.407-.343-.251h.427Z" fill="#fff"/>
          <path id="Path_10523" data-name="Path 10523" d="M113.761,819.72l.134.409h.424l-.347.25.138.407-.349-.251-.347.251.132-.407-.343-.25h.427Z" fill="#fff"/>
          <path id="Path_10524" data-name="Path 10524" d="M115.013,813.477l.132.407h.427l-.345.252.129.407-.343-.251-.345.251.129-.407-.345-.252h.427Z" fill="#fff"/>
          <path id="Path_10525" data-name="Path 10525" d="M115.013,815.274l.132.405h.427l-.345.253.129.4-.343-.247-.345.247.129-.4-.345-.253h.427Z" fill="#fff"/>
          <path id="Path_10526" data-name="Path 10526" d="M115.013,817.072l.132.407h.427l-.345.251.129.407-.343-.251-.345.251.129-.407-.345-.251h.427Z" fill="#fff"/>
          <path id="Path_10527" data-name="Path 10527" d="M115.013,818.872l.132.405h.427l-.345.251.129.405-.343-.251-.345.251.129-.405-.345-.251h.427Z" fill="#fff"/>
          <path id="Path_10528" data-name="Path 10528" d="M116.278,812.529l.134.41h.427l-.345.251.134.407-.35-.251-.343.251.13-.407-.345-.251h.427Z" fill="#fff"/>
          <path id="Path_10529" data-name="Path 10529" d="M116.278,814.327l.134.407h.427l-.345.251.134.407-.35-.251-.343.251.13-.407-.345-.251h.427Z" fill="#fff"/>
          <path id="Path_10530" data-name="Path 10530" d="M116.278,816.126l.134.405h.427l-.345.251.134.409-.35-.253-.343.253.13-.409-.345-.251h.427Z" fill="#fff"/>
          <path id="Path_10531" data-name="Path 10531" d="M116.278,817.922l.134.407h.427l-.345.251.134.407-.35-.251-.343.251.13-.407-.345-.251h.427Z" fill="#fff"/>
          <path id="Path_10532" data-name="Path 10532" d="M116.278,819.72l.134.409h.427l-.345.25.134.407-.35-.251-.343.251.13-.407-.345-.25h.427Z" fill="#fff"/>
          <path id="Path_10533" data-name="Path 10533" d="M117.531,813.477l.132.407h.431l-.347.252.132.407-.347-.251-.345.251.134-.407-.347-.252h.429Z" fill="#fff"/>
          <path id="Path_10534" data-name="Path 10534" d="M117.531,815.274l.132.405h.431l-.347.253.132.4-.347-.247-.345.247.134-.4-.347-.253h.429Z" fill="#fff"/>
          <path id="Path_10535" data-name="Path 10535" d="M117.531,817.072l.132.407h.431l-.347.251.132.407-.347-.251-.345.251.134-.407-.347-.251h.429Z" fill="#fff"/>
          <path id="Path_10536" data-name="Path 10536" d="M117.531,818.872l.132.405h.431l-.347.251.132.405-.347-.251-.345.251.134-.405-.347-.251h.429Z" fill="#fff"/>
          <path id="Path_10537" data-name="Path 10537" d="M118.8,812.529l.133.41h.427l-.345.251.13.407-.346-.251-.343.251.13-.407-.346-.251h.427Z" fill="#fff"/>
          <path id="Path_10538" data-name="Path 10538" d="M118.8,814.327l.133.407h.427l-.345.251.13.407-.346-.251-.343.251.13-.407-.346-.251h.427Z" fill="#fff"/>
          <path id="Path_10539" data-name="Path 10539" d="M118.8,816.126l.133.405h.427l-.345.251.13.409-.346-.253-.343.253.13-.409-.346-.251h.427Z" fill="#fff"/>
          <path id="Path_10540" data-name="Path 10540" d="M118.8,817.922l.133.407h.427l-.345.251.13.407-.346-.251-.343.251.13-.407-.346-.251h.427Z" fill="#fff"/>
          <path id="Path_10541" data-name="Path 10541" d="M118.8,819.72l.133.409h.427l-.345.25.13.407-.346-.251-.343.251.13-.407-.346-.25h.427Z" fill="#fff"/>
          <path id="Path_10542" data-name="Path 10542" d="M120.053,813.477l.129.407h.429l-.343.252.128.407-.343-.251-.349.251.133-.407-.343-.252h.425Z" fill="#fff"/>
          <path id="Path_10543" data-name="Path 10543" d="M120.053,815.274l.129.405h.429l-.343.253.128.4-.343-.247-.349.247.133-.4-.343-.253h.425Z" fill="#fff"/>
          <path id="Path_10544" data-name="Path 10544" d="M120.053,817.072l.129.407h.429l-.343.251.128.407-.343-.251-.349.251.133-.407-.343-.251h.425Z" fill="#fff"/>
          <path id="Path_10545" data-name="Path 10545" d="M120.053,818.872l.129.405h.429l-.343.251.128.405-.343-.251-.349.251.133-.405-.343-.251h.425Z" fill="#fff"/>
          <path id="Path_10546" data-name="Path 10546" d="M121.318,812.529l.136.41h.425l-.345.251.133.407-.349-.251-.343.251.13-.407-.345-.251h.427Z" fill="#fff"/>
          <path id="Path_10547" data-name="Path 10547" d="M121.318,814.327l.136.407h.425l-.345.251.133.407-.349-.251-.343.251.13-.407-.345-.251h.427Z" fill="#fff"/>
          <path id="Path_10548" data-name="Path 10548" d="M121.318,816.126l.136.405h.425l-.345.251.133.409-.349-.253-.343.253.13-.409-.345-.251h.427Z" fill="#fff"/>
          <path id="Path_10549" data-name="Path 10549" d="M121.318,817.922l.136.407h.425l-.345.251.133.407-.349-.251-.343.251.13-.407-.345-.251h.427Z" fill="#fff"/>
          <path id="Path_10550" data-name="Path 10550" d="M121.318,819.72l.136.409h.425l-.345.25.133.407-.349-.251-.343.251.13-.407-.345-.25h.427Z" fill="#fff"/>
        </g>
      </g>
    </g>
  </g>
</svg>
